<svg width="53" height="53" fill="none" xmlns="http://www.w3.org/2000/svg"><path d="M42.13 0H10.87C4.875 0 0 4.876 0 10.87v31.26C0 48.125 4.876 53 10.87 53h31.26C48.125 53 53 48.124 53 42.13V10.87C53 4.875 48.124 0 42.13 0zm7.764 42.13c0 4.282-3.482 7.764-7.763 7.764H10.869c-4.28 0-7.764-3.482-7.764-7.763V10.869c0-4.28 3.483-7.764 7.764-7.764h31.262c4.28 0 7.764 3.483 7.764 7.764v31.262z" fill="#FF3359"/><path d="M31.64 12.787a2.57 2.57 0 00-1.207-1.571 2.59 2.59 0 00-3.535.947l-.398.69-.398-.69a2.591 2.591 0 00-3.535-.947 2.591 2.591 0 00-.948 3.535l1.893 3.278-6.983 12.094h-5.09A2.59 2.59 0 008.85 32.71a2.59 2.59 0 002.587 2.588h19.654l-2.988-5.176h-5.598L31.38 14.75a2.57 2.57 0 00.258-1.964z" fill="#FF3359"/><path d="M41.562 30.123H36.47l-5.787-10.024-2.989 5.176 8.986 15.563a2.57 2.57 0 001.572 1.206 2.572 2.572 0 001.964-.259 2.59 2.59 0 00.946-3.534l-1.704-2.952h2.103a2.59 2.59 0 002.588-2.588 2.59 2.59 0 00-2.588-2.588zM12.346 37.37l-.51.88a2.59 2.59 0 002.237 3.882 2.59 2.59 0 002.246-1.293l2.003-3.47h-5.976z" fill="#FF3359"/></svg>