<svg width="18" height="18" fill="none" xmlns="http://www.w3.org/2000/svg"><g opacity=".6" clip-path="url(#clip0)" fill="#000"><path d="M9 6.103A2.899 2.899 0 006.103 9 2.899 2.899 0 009 11.897 2.899 2.899 0 0011.897 9 2.899 2.899 0 009 6.103zm-.22 2.038c-.36 0-.659.3-.659.659h-.959c.02-.899.74-1.618 1.618-1.618v.959z"/><path d="M17.79 8.4C16.811 7.183 13.315 3.208 9 3.208 4.685 3.207 1.189 7.182.21 8.4a.96.96 0 000 1.198c.979 1.22 4.475 5.195 8.79 5.195 4.315 0 7.811-3.976 8.79-5.195a.96.96 0 000-1.198zM9 13.196a4.195 4.195 0 11-.001-8.39A4.195 4.195 0 019 13.196z"/></g><defs><clipPath id="clip0"><path fill="#fff" d="M0 0h18v18H0z"/></clipPath></defs></svg>