<svg width="49" height="49" fill="none" xmlns="http://www.w3.org/2000/svg"><path d="M49 24.5C49 10.968 38.032 0 24.5 0S0 10.968 0 24.5c0 12.23 8.958 22.366 20.672 24.203V31.582h-6.22V24.5h6.22v-5.398c0-6.14 3.656-9.532 9.254-9.532 2.68 0 5.484.479 5.484.479v6.03h-3.09c-3.043 0-3.99 1.89-3.99 3.827V24.5h6.794l-1.086 7.082h-5.709v17.121C40.042 46.866 49 36.731 49 24.5z" fill="#1877F2"/><path d="M34.037 31.582l1.086-7.082h-6.795v-4.594c0-1.938.948-3.828 3.991-3.828h3.091v-6.03s-2.804-.478-5.484-.478c-5.598 0-9.254 3.393-9.254 9.532V24.5h-6.22v7.082h6.22v17.121C21.92 48.9 23.198 49 24.5 49s2.58-.1 3.828-.297V31.582h5.709z" fill="#fff"/></svg>