<svg width="53" height="53" fill="none" xmlns="http://www.w3.org/2000/svg"><g clip-path="url(#clip0)"><path d="M10.155.675a4.598 4.598 0 00-4.412-.21L29.54 24.31l7.78-7.816L10.155.675zM3.557 2.671a4.85 4.85 0 00-.462 2.07v43.62c0 .731.163 1.428.466 2.05l23.786-23.899-23.79-23.84zm25.985 26.04L5.785 52.58c.63.292 1.301.419 1.97.419.828 0 1.653-.198 2.4-.647l27.17-15.842-7.783-7.8zm18.123-6.192a.478.478 0 00-.03-.018l-7.542-4.392-8.36 8.4 8.366 8.384 7.566-4.411a4.625 4.625 0 002.24-3.982c0-1.642-.838-3.13-2.24-3.982z" fill="#FF3359"/></g><defs><clipPath id="clip0"><path fill="#fff" d="M0 0h53v53H0z"/></clipPath></defs></svg>