<svg width="15" height="15" fill="none" xmlns="http://www.w3.org/2000/svg"><g clip-path="url(#clip0)" fill="#FF3359"><path d="M13.165 13.254a.224.224 0 00-.162-.097h-.03A7.049 7.049 0 018.817.41.224.224 0 008.69 0l.001.002a7.5 7.5 0 104.412 13.563.224.224 0 00.06-.31z"/><path d="M10.757 8.797a.224.224 0 00-.092-.047l-.002-.003-.605-.145-.324-.526a.224.224 0 00-.383 0l-.328.526-.595.145a.224.224 0 00-.128.365l.403.473-.047.62a.224.224 0 00.315.225l.577-.237.564.232a.224.224 0 00.315-.22l-.047-.62.403-.473a.224.224 0 00-.026-.315zm.973-5.709a.224.224 0 00-.093-.047l.003.008-1.033-.253-.558-.902a.224.224 0 00-.383 0l-.56.906-1.023.25a.224.224 0 00-.131.353l.688.811-.08 1.062a.224.224 0 00.315.224l.985-.403.972.398a.224.224 0 00.315-.219l-.08-1.062.688-.811a.224.224 0 00-.026-.315zm1.999 3.622a.224.224 0 00-.093-.047l-.006-.004-.473-.113-.25-.406a.224.224 0 00-.383 0l-.247.414-.457.112a.224.224 0 00-.13.36l.316.368-.037.472a.224.224 0 00.316.224l.444-.183.432.177a.224.224 0 00.315-.22l-.037-.472.315-.367a.224.224 0 00-.025-.315z"/></g><defs><clipPath id="clip0"><path fill="#fff" d="M0 0h15v15H0z"/></clipPath></defs></svg>