<svg width="62" height="56" fill="none" xmlns="http://www.w3.org/2000/svg"><path d="M18.31 27.958l8.03-7.786a6.214 6.214 0 001.89-4.482 6.269 6.269 0 00-6.261-6.262 6.268 6.268 0 00-3.66 1.183 6.268 6.268 0 00-3.66-1.183 6.269 6.269 0 00-6.262 6.262c0 1.7.672 3.293 1.895 4.486l8.027 7.782zm-3.66-14.897c.847 0 1.648.414 2.142 1.107l.544.763h1.947l.543-.763a2.637 2.637 0 012.143-1.107 2.632 2.632 0 012.629 2.629c0 .714-.282 1.382-.79 1.878l-5.499 5.33-5.494-5.326a2.61 2.61 0 01-.795-1.882c0-1.45 1.18-2.63 2.63-2.63z" fill="#fff"/><path d="M62 45.316V.391H0v44.925h23.164v2.18c0 2.47-2.01 4.48-4.48 4.48H13.4v3.633h35.2v-3.632h-5.283c-2.47 0-4.48-2.01-4.48-4.48v-2.18H62zM58.367 4.023V32.48H3.633V4.023h54.734zM3.633 41.683v-5.57h54.734v5.57H3.633zm32.924 10.294H25.443a8.065 8.065 0 001.354-4.48v-2.18h8.406v2.18c0 1.654.5 3.195 1.354 4.48z" fill="#fff"/><path d="M33.22 9.546h19.133v3.632H33.22V9.546zm0 6.986h19.133v3.633H33.22v-3.633zm0 6.988h14.128v3.632H33.22V23.52z" fill="#fff"/></svg>