<svg width="45" height="46" fill="none" xmlns="http://www.w3.org/2000/svg"><g clip-path="url(#clip0)" fill="#fff"><path d="M36.236 6.684A19.298 19.298 0 0022.5.994a19.298 19.298 0 00-13.736 5.69 19.298 19.298 0 00-5.69 13.736 19.298 19.298 0 005.69 13.736 19.282 19.282 0 0012.418 5.646v6.193l2.081-1.478c.366-.26 9.025-6.42 13.254-10.65a18.118 18.118 0 003.995-6.069 19.61 19.61 0 001.413-7.378c0-5.189-2.02-10.067-5.69-13.736zM23.818 40.856V37.21H22.5c-9.258 0-16.79-7.532-16.79-16.79S13.242 3.63 22.5 3.63s16.79 7.532 16.79 16.79c0 4.48-1.647 8.594-4.636 11.583-2.844 2.844-7.97 6.74-10.836 8.853z"/><path d="M22.5 7.954c-6.874 0-12.466 5.592-12.466 12.466S15.626 32.886 22.5 32.886s12.466-5.592 12.466-12.466S29.374 7.954 22.5 7.954zm0 22.296c-5.42 0-9.83-4.41-9.83-9.83s4.41-9.83 9.83-9.83 9.83 4.41 9.83 9.83-4.41 9.83-9.83 9.83z"/><path d="M21.172 18.463h2.656v7.576h-2.656v-7.576zm1.328-3.662c-.978 0-1.621.615-1.621 1.412 0 .797.643 1.412 1.621 1.412s1.621-.615 1.621-1.454c0-.797-.643-1.37-1.621-1.37z"/></g><defs><clipPath id="clip0"><path fill="#fff" transform="translate(0 .995)" d="M0 0h45v45H0z"/></clipPath></defs></svg>