<svg width="45" height="46" fill="none" xmlns="http://www.w3.org/2000/svg"><path d="M44.341 22.67c-.099-.123-2.472-3.068-6.319-6.042-2.271-1.756-4.59-3.158-6.892-4.167-2.797-1.227-5.578-1.873-8.271-1.925a12.936 12.936 0 00-.717 0c-2.694.052-5.475.698-8.272 1.925-2.301 1.01-4.62 2.411-6.892 4.167C3.13 19.602.758 22.547.659 22.671L0 23.494l.659.824c.1.124 2.472 3.069 6.319 6.042 2.272 1.757 4.59 3.159 6.892 4.168 2.797 1.227 5.578 1.873 8.272 1.925a12.934 12.934 0 00.716 0c2.694-.052 5.475-.698 8.272-1.925 2.302-1.01 4.62-2.411 6.892-4.168 3.847-2.973 6.22-5.918 6.319-6.042l.659-.824-.659-.823zm-32.895 7.59a33.85 33.85 0 01-2.806-1.948 40.369 40.369 0 01-5.209-4.818 40.36 40.36 0 015.209-4.817 33.834 33.834 0 012.806-1.948 12.885 12.885 0 00-1.91 6.765c0 2.478.7 4.795 1.91 6.766zm11.37 3.556c-.105.002-.21.005-.316.005-.106 0-.21-.003-.316-.005-5.549-.168-10.01-4.733-10.01-10.322 0-5.588 4.461-10.153 10.01-10.321.105-.002.21-.006.316-.006.106 0 .21.004.316.006 5.549.167 10.011 4.733 10.011 10.321 0 5.589-4.462 10.154-10.01 10.322zm13.545-5.504a33.828 33.828 0 01-2.806 1.948 12.885 12.885 0 001.91-6.766c0-2.477-.7-4.794-1.91-6.765a33.91 33.91 0 012.806 1.948 40.351 40.351 0 015.208 4.817 40.36 40.36 0 01-5.208 4.818z" fill="#fff"/><path d="M22.5 15.996c-4.134 0-7.498 3.364-7.498 7.498 0 4.135 3.364 7.499 7.498 7.499 4.135 0 7.498-3.364 7.498-7.499 0-4.134-3.363-7.498-7.498-7.498zm0 12.36a4.867 4.867 0 01-4.861-4.862c0-2.68 2.18-4.86 4.861-4.86 2.68 0 4.861 2.18 4.861 4.86s-2.18 4.862-4.861 4.862z" fill="#fff"/></svg>