<svg width="17" height="17" fill="none" xmlns="http://www.w3.org/2000/svg"><g opacity=".6" clip-path="url(#clip0)"><path d="M16.806 15.872l-4.149-4.149a7.121 7.121 0 001.653-4.568C14.31 3.21 11.1 0 7.155 0 3.21 0 0 3.21 0 7.155 0 11.1 3.21 14.31 7.155 14.31a7.122 7.122 0 004.568-1.652l4.149 4.148a.659.659 0 00.934 0 .66.66 0 000-.934zM1.322 7.155a5.84 5.84 0 015.833-5.833 5.84 5.84 0 015.833 5.833 5.84 5.84 0 01-5.833 5.833 5.84 5.84 0 01-5.833-5.833z" fill="#000"/></g><defs><clipPath id="clip0"><path fill="#fff" d="M0 0h17v17H0z"/></clipPath></defs></svg>