<svg width="45" height="43" fill="none" xmlns="http://www.w3.org/2000/svg"><path d="M12.013 16.968h2.542v2.542h-2.542v-2.542z" fill="#FF3359"/><path d="M42.975 18.291a13.336 13.336 0 00-4.732-4.52l-1.28-4.927h-3.846C32.47 4.086 28.382.406 23.449.406h-1.726c-5.38 0-9.757 4.377-9.757 9.757V12.8H8.038l-1.281 4.926a13.34 13.34 0 00-4.732 4.52A13.25 13.25 0 000 29.297c0 7.325 5.96 13.284 13.284 13.284 4.686 0 8.813-2.439 11.178-6.114a13.203 13.203 0 007.254 2.16c7.325 0 13.284-5.96 13.284-13.284 0-2.503-.7-4.94-2.025-7.052zm-11.259 17.7c-1.848 0-3.588-.474-5.104-1.306l1.372-2.159a8.036 8.036 0 003.764.93c4.466 0 8.098-3.633 8.098-8.098 0-4.465-3.632-8.098-8.098-8.098-3.266 0-6.087 1.944-7.366 4.736a8.052 8.052 0 00-.732 3.362 8.07 8.07 0 002.225 5.57l-1.404 2.21c-.33-.306-.641-.634-.93-.982a10.598 10.598 0 01-2.472-6.813c0-.99.135-1.955.391-2.877.26-.933.643-1.82 1.14-2.639a10.647 10.647 0 014.316-3.99l.53-.268 1.063-4.088h6.414l1.062 4.088.53.269a10.604 10.604 0 015.848 9.505c0 5.871-4.776 10.647-10.647 10.647zM7.843 29.31a5.48 5.48 0 015.473-5.472 5.48 5.48 0 015.473 5.473 5.48 5.48 0 01-5.473 5.473 5.48 5.48 0 01-5.473-5.473zm18.444-3.953a5.467 5.467 0 015.46-5.461 5.468 5.468 0 015.462 5.461c0 3.011-2.45 5.462-5.461 5.462s-5.46-2.45-5.46-5.462zM14.602 10.163c0-3.926 3.195-7.12 7.12-7.12h1.727c3.476 0 6.376 2.503 6.996 5.801H26.47l-1.28 4.928a13.335 13.335 0 00-4.654 4.394 13.284 13.284 0 00-.726-.441l-1.28-4.927h-3.928v-2.635zM2.637 29.297c0-4.038 2.24-7.68 5.847-9.506l.531-.269 1.061-4.087h6.415l1.062 4.087.531.27c.437.22.854.468 1.248.74a13.118 13.118 0 00-.722 2.641 8.07 8.07 0 00-5.293-1.971c-4.473 0-8.111 3.637-8.111 8.11a8.08 8.08 0 002.23 5.58l-1.397 2.2a10.614 10.614 0 01-3.402-7.794zm10.647 10.648c-1.849 0-3.588-.474-5.104-1.306l1.365-2.149a8.051 8.051 0 003.771.932 8.119 8.119 0 007.359-4.702 13.36 13.36 0 001.721 2.08 10.65 10.65 0 01-9.112 5.145z" fill="#FF3359"/><path d="M30.445 13.015h2.542v2.542h-2.542v-2.542z" fill="#FF3359"/></svg>