<svg width="73" height="73" fill="none" xmlns="http://www.w3.org/2000/svg"><path d="M69.28 11.652h-3.992V8.974C65.288 4.026 61.262 0 56.314 0c-4.949 0-8.974 4.026-8.974 8.974v2.678h-3.991v8.888a27.433 27.433 0 00-12.019-2.758c-15.224 0-27.61 12.385-27.61 27.609C3.72 60.615 16.107 73 31.33 73s27.609-12.385 27.609-27.61c0-3.474-.647-6.8-1.824-9.864h12.164V11.652zM51.616 8.974a4.702 4.702 0 014.697-4.697 4.702 4.702 0 014.697 4.697v2.678h-9.394V8.974zM19.932 65.743V59.95c0-4.67 3.8-8.47 8.47-8.47h5.855c4.67 0 8.47 3.8 8.47 8.47v5.793a23.186 23.186 0 01-11.397 2.98 23.188 23.188 0 01-11.398-2.98zm11.398-18.54a5.221 5.221 0 01-5.215-5.216 5.221 5.221 0 015.215-5.215 5.221 5.221 0 015.215 5.215 5.221 5.221 0 01-5.215 5.216zm23.332-1.812c0 6.837-2.956 12.996-7.657 17.267V59.95c0-5.477-3.472-10.157-8.33-11.958a9.448 9.448 0 002.148-6.005c0-5.234-4.259-9.492-9.493-9.492s-9.493 4.258-9.493 9.492c0 2.277.806 4.368 2.147 6.005-4.857 1.801-8.329 6.482-8.329 11.958v2.708c-4.701-4.27-7.657-10.43-7.657-17.267 0-12.865 10.467-23.332 23.332-23.332a23.19 23.19 0 0112.019 3.342v10.125h9.122a23.187 23.187 0 012.19 9.865zm10.34-14.142h-6.55V21.45h-4.277v9.799h-6.55v-15.32h17.377v15.32z" fill="#ffffff"/></svg>