<svg width="20" height="10" viewBox="0 0 20 10" fill="none" xmlns="http://www.w3.org/2000/svg">
<path d="M0.229141 5.55302C0.229375 5.55325 0.22957 5.55352 0.229843 5.55376L4.31203 9.61625C4.61785 9.92059 5.1125 9.91946 5.41691 9.6136C5.72129 9.30778 5.72012 8.81313 5.4143 8.50876L2.67351 5.78126L19.2187 5.78126C19.6502 5.78126 20 5.43149 20 5.00001C20 4.56852 19.6502 4.21876 19.2187 4.21876L2.67355 4.21876L5.41426 1.49126C5.72008 1.18689 5.72125 0.692238 5.41687 0.386419C5.11246 0.08052 4.61777 0.0794663 4.31199 0.383763L0.229805 4.44626C0.22957 4.44649 0.229373 4.44677 0.229101 4.447C-0.0768761 4.75239 -0.0758995 5.24864 0.229141 5.55302Z" fill="white"/>
</svg>
