<svg width="42" height="42" fill="none" xmlns="http://www.w3.org/2000/svg"><path d="M36.273 16.995c.738-.601 1.758-1.151 3.021-1.151l2.46-.004-.004-2.462-2.458.004c-2.427 0-4.526 1.283-6.007 3.171-1.524.158-3.434.903-5.517 2.986-1.28 1.28-2 2.593-2.408 3.675l-4.368-4.376c.864-.325 1.844-.883 2.793-1.831 3.038-3.039 2.899-5.703 2.545-7.021l-.011-.04c1.18-2.905.07-6.515-2.243-8.83L22.994.033l-1.743 1.74 1.083 1.084c1.11 1.11 1.854 2.62 1.978 4.125-2.02-1.593-4.848-1.759-6.537-.067a3.7 3.7 0 000 5.222c1.537 1.54 3.71 1.705 6.062.497-.298.852-.9 1.739-1.793 2.632-1.229 1.228-2.466 1.494-3.075 1.545l-7.755-7.768L.246 42l32.902-10.985-5.8-5.81c.132-.756.587-2.35 2.161-3.925.715-.715 1.436-1.268 2.145-1.653-.413 1.302-.52 2.639-.274 3.85.574 2.833 2.488 4.02 4.237 4.02 2.448 0 4.644-2.287 4.19-5.778-.274-2.097-1.641-3.906-3.534-4.724zm-12.893-6.94c-1.171.759-2.782 1.424-3.862.342a1.235 1.235 0 010-1.742c.963-.965 3.112-.406 4.075 1.146a3.343 3.343 0 01-.213.255zm-.284 14.376H8.688l1.23-3.694h9.49l3.688 3.694zM12.29 13.607l4.66 4.668h-6.213l1.553-4.668zM5.572 33.795h11.473l-12.907 4.31 1.434-4.31zm18.848-2.462H6.39l1.478-4.44h17.685l3.04 3.046-4.174 1.394zm11.417-6.316c-.96.16-1.762-.637-2.044-2.029-.242-1.195.062-2.65.788-3.95 1.494.277 2.592 1.526 2.784 3 .239 1.832-.625 2.829-1.528 2.979zm1.244-17.63a3.695 3.695 0 003.69-3.694A3.695 3.695 0 0037.08 0a3.695 3.695 0 00-3.689 3.693 3.695 3.695 0 003.69 3.694zm0-4.925a1.23 1.23 0 010 2.462 1.23 1.23 0 010-2.462z" fill="#FF3359"/><path d="M32.581 9.028h2.459v2.462h-2.46V9.028zm-4.103-5.006h2.458v2.462h-2.458V4.022zm-.413 8.7h2.459v2.462h-2.459v-2.462z" fill="#FF3359"/></svg>