<svg width="45" height="45" fill="none" xmlns="http://www.w3.org/2000/svg"><path d="M42.275 36.086V22.412c0-5.088-4.14-9.228-9.228-9.228-5.095 0-9.229 4.146-9.229 9.228v13.74c-.51.64-.95 1.324-1.318 2.042a12.232 12.232 0 00-2.146-2.98 11.97 11.97 0 00-3.373-2.43 9.228 9.228 0 004.2-7.735v-2.637c0-5.088-4.14-9.228-9.228-9.228H1.318c-.728 0-1.318.59-1.318 1.318a9.156 9.156 0 002.725 6.515v4.032a9.228 9.228 0 004.193 7.73C2.956 34.669 0 38.805 0 43.682 0 44.41.59 45 1.318 45h42.364C44.41 45 45 44.41 45 43.682c0-2.782-.96-5.438-2.725-7.596zM2.771 15.82h9.182c3.183 0 5.847 2.269 6.46 5.274H9.316c-3.226 0-5.925-2.273-6.545-5.274zm2.59 9.229v-2.193a9.335 9.335 0 003.955.874h9.229v1.319a6.6 6.6 0 01-6.592 6.592 6.6 6.6 0 01-6.592-6.592zM2.733 42.363c.657-4.5 4.612-8.086 9.22-8.086 4.65 0 8.507 3.522 9.138 8.086H2.733zM33.047 15.82c3.183 0 5.847 2.269 6.459 5.274h-3.451c-2.9 0-5.604-1.35-7.345-3.64a6.562 6.562 0 014.337-1.634zm-6.592 6.592c0-.996.224-1.941.621-2.789a11.838 11.838 0 008.979 4.107h3.584v1.319a6.6 6.6 0 01-6.592 6.592 6.6 6.6 0 01-6.592-6.592v-2.637zM39.64 31.5v2.171a11.912 11.912 0 00-1.557-.892A9.294 9.294 0 0039.64 31.5zm-13.184 0a9.29 9.29 0 001.564 1.284c-.54.26-1.064.562-1.564.906V31.5zM23.91 42.363c.63-4.564 4.488-8.086 9.138-8.086 4.608 0 8.563 3.586 9.22 8.086H23.91z" fill="#FF3359"/><path d="M25.77 0c-1.273 0-2.393.518-3.27 1.505C21.623.518 20.503 0 19.23 0c-2.574 0-4.59 2.139-4.59 4.869 0 2.865 2.229 4.746 5.312 7.349.538.454 1.095.923 1.684 1.434a1.316 1.316 0 001.727 0c.59-.51 1.147-.98 1.685-1.434 2.86-2.414 5.311-4.379 5.311-7.35C30.36 2.139 28.344 0 25.77 0zm-2.423 10.203c-.277.233-.558.47-.847.716l-.847-.716c-2.955-2.495-4.376-3.763-4.376-5.334 0-1.11.67-2.232 1.953-2.232 1.415 0 1.962 1.744 2 1.871a1.313 1.313 0 002.54 0c.037-.127.585-1.871 2-1.871 1.282 0 1.953 1.123 1.953 2.232 0 1.637-1.663 3.044-4.376 5.334z" fill="#FF3359"/></svg>