<svg width="42" height="42" fill="none" xmlns="http://www.w3.org/2000/svg"><path d="M3.436 12.272l-2.35-1.166c-.447.899-.76 1.859-.929 2.849l2.587.443c.126-.738.36-1.454.692-2.126zm35.831 2.176l2.589-.43c-.166-.99-.476-1.95-.919-2.852l-2.362 1.151a7.79 7.79 0 01.691 2.131z" fill="#FF3359"/><path d="M41.216 24.163a7.828 7.828 0 00-1.398-2.01 10.515 10.515 0 002.1-5.151l-2.607-.31a7.874 7.874 0 01-2.272 4.647l-1.094 1.085 1.245.907a5.21 5.21 0 01-1.18 9.106l-.036.014a5.21 5.21 0 01-1.85.358 5.266 5.266 0 01-5.146-4.2l-2.57.525a7.896 7.896 0 007.715 6.3c.08 0 .155-.01.234-.012a7.817 7.817 0 01-12.044 1.922V26.76a5.264 5.264 0 013.937-1.825 5.203 5.203 0 014.2 2.1l2.099-1.575a7.827 7.827 0 00-10.236-2.074v-5.905a9.114 9.114 0 003.937.892 9.22 9.22 0 007.954-4.593l-2.272-1.312a6.588 6.588 0 01-5.682 3.28 6.466 6.466 0 01-3.937-1.358V5.278a6.522 6.522 0 0110.564.089 10.71 10.71 0 00-6.786 1.38l1.34 2.255a7.983 7.983 0 017.235-.46h.014a7.874 7.874 0 012.644 1.918l1.941-1.766A10.485 10.485 0 0036.32 6.43 9.159 9.159 0 0021 2.787 9.159 9.159 0 005.682 6.431 10.535 10.535 0 002.78 8.645l1.93 1.778a7.928 7.928 0 012.612-1.875 7.98 7.98 0 017.241.457l1.34-2.255a10.708 10.708 0 00-6.779-1.383 6.537 6.537 0 0110.564-.109v5.241a3.937 3.937 0 01-6.89 2.604L10.83 14.84a6.561 6.561 0 004.921 2.222 6.494 6.494 0 003.937-1.346v5.047a7.841 7.841 0 00-11.653 5.223l2.573.525a5.216 5.216 0 019.08-2.374v13.221a7.833 7.833 0 01-12.044-1.935c.078 0 .155.011.233.011a7.896 7.896 0 007.717-6.299l-2.571-.525a5.266 5.266 0 01-5.146 4.2 5.21 5.21 0 01-1.854-.358l-.035-.014a5.21 5.21 0 01-1.182-9.106l1.245-.907-1.094-1.085a7.901 7.901 0 01-2.278-4.698l-2.61.289c.217 1.9.949 3.706 2.115 5.223A7.825 7.825 0 004.415 34.62c1.711 5.526 7.578 8.62 13.104 6.909A10.475 10.475 0 0021 39.672c4.504 3.632 11.098 2.925 14.73-1.578a10.474 10.474 0 001.853-3.48 7.825 7.825 0 003.633-10.452z" fill="#FF3359"/></svg>