<svg width="45" height="45" fill="none" xmlns="http://www.w3.org/2000/svg"><g clip-path="url(#clip0)"><path d="M34.123 23.278a10.819 10.819 0 00-7.339 2.863l-2.944-2.507V21.64c5.367-.655 9.538-5.24 9.538-10.78C33.378 4.872 28.506 0 22.517 0c-5.989 0-10.86 4.872-10.86 10.86 0 5.544 4.173 10.13 9.543 10.782v1.984l-2.96 2.537a10.82 10.82 0 00-7.363-2.885C4.888 23.278.016 28.151.016 34.14.016 40.128 4.888 45 10.876 45c5.99 0 10.861-4.872 10.861-10.86 0-2.202-.658-4.252-1.788-5.965l2.568-2.2 2.552 2.174a10.797 10.797 0 00-1.806 5.99c0 5.989 4.872 10.861 10.86 10.861 5.99 0 10.861-4.872 10.861-10.86 0-5.99-4.872-10.862-10.86-10.862zM22.517 10.881a2.182 2.182 0 01-2.18-2.18c0-1.202.978-2.18 2.18-2.18 1.202 0 2.18.978 2.18 2.18 0 1.202-.978 2.18-2.18 2.18zm-1.156 2.64h2.328c2.023 0 3.757 1.644 4.03 3.7a8.182 8.182 0 01-5.202 1.86 8.182 8.182 0 01-5.187-1.848c.268-2.062 2.005-3.712 4.031-3.712zm1.156-10.88c4.533 0 8.22 3.687 8.22 8.22a8.17 8.17 0 01-1.017 3.956 7.062 7.062 0 00-1.265-1.85 6.806 6.806 0 00-2.018-1.467c.566-.79.9-1.756.9-2.799a4.826 4.826 0 00-4.82-4.82 4.826 4.826 0 00-4.82 4.82c0 1.046.336 2.014.904 2.805-.736.35-1.415.84-2.006 1.46a7.06 7.06 0 00-1.272 1.867 8.168 8.168 0 01-1.026-3.972c0-4.533 3.687-8.22 8.22-8.22zM5.69 40.51c.27-2.06 2.005-3.71 4.03-3.71h2.329c2.022 0 3.755 1.644 4.029 3.7a8.182 8.182 0 01-5.201 1.86 8.181 8.181 0 01-5.187-1.847zm5.187-6.352a2.182 2.182 0 01-2.18-2.18c0-1.201.978-2.18 2.18-2.18 1.201 0 2.18.979 2.18 2.18 0 1.202-.979 2.18-2.18 2.18zm7.202 3.938a7.07 7.07 0 00-1.264-1.85 6.808 6.808 0 00-2.018-1.468c.565-.79.9-1.756.9-2.8a4.826 4.826 0 00-4.82-4.82 4.826 4.826 0 00-4.82 4.82c0 1.046.335 2.015.904 2.806a6.81 6.81 0 00-2.007 1.462 7.07 7.07 0 00-1.271 1.866 8.17 8.17 0 01-1.027-3.974c0-4.532 3.688-8.22 8.22-8.22 4.533 0 8.22 3.688 8.22 8.22a8.17 8.17 0 01-1.017 3.958zm16.044-12.178c4.533 0 8.22 3.688 8.22 8.22a8.17 8.17 0 01-1.015 3.954 7.046 7.046 0 00-1.267-1.853 6.8 6.8 0 00-2.017-1.462c.566-.79.9-1.756.9-2.799a4.826 4.826 0 00-4.82-4.82 4.826 4.826 0 00-4.82 4.82c0 1.046.335 2.014.903 2.804a6.802 6.802 0 00-2.005 1.457 7.053 7.053 0 00-1.275 1.869 8.169 8.169 0 01-1.024-3.97c0-4.532 3.688-8.22 8.22-8.22zm-2.18 6.06c0-1.201.979-2.18 2.18-2.18 1.202 0 2.18.979 2.18 2.18 0 1.202-.978 2.18-2.18 2.18a2.182 2.182 0 01-2.18-2.18zm-3.007 8.532c.265-2.061 2.003-3.712 4.032-3.712h2.328c2.024 0 3.76 1.645 4.03 3.7a8.182 8.182 0 01-5.203 1.86 8.182 8.182 0 01-5.187-1.848z" fill="#FF3359"/></g><defs><clipPath id="clip0"><path fill="#fff" d="M0 0h45v45H0z"/></clipPath></defs></svg>