<svg width="43" height="45" fill="none" xmlns="http://www.w3.org/2000/svg"><path d="M34.5 0v2.755h3.109l-6.063 5.749A11.778 11.778 0 0023.1 4.942c-4.447 0-8.328 2.47-10.343 6.111a11.994 11.994 0 00-.521-.012c-6.514 0-11.814 5.3-11.814 11.814 0 6.048 4.569 11.049 10.436 11.733v3.662H6.734v2.755h4.125V45h2.755v-3.995h4.304V38.25h-4.304v-3.662c3.862-.45 7.162-2.771 8.966-6.03.172.007.346.012.52.012 6.514 0 11.814-5.3 11.814-11.814a11.74 11.74 0 00-1.676-6.06l6.585-6.243v3.421h2.755V0H34.5zM12.237 31.914c-4.995 0-9.059-4.064-9.059-9.059 0-4.8 3.754-8.74 8.48-9.04-.242.94-.37 1.926-.37 2.94 0 5.315 3.526 9.82 8.363 11.3a9.054 9.054 0 01-7.414 3.859zm8.653-6.373c-3.93-.99-6.848-4.553-6.848-8.785 0-.935.143-1.837.407-2.686 3.93.99 6.847 4.553 6.847 8.785 0 .935-.142 1.837-.406 2.686zm2.79.255c.243-.941.371-1.926.371-2.941 0-5.314-3.527-9.82-8.363-11.3A9.055 9.055 0 0123.1 7.697c4.996 0 9.06 4.064 9.06 9.059 0 4.8-3.754 8.74-8.48 9.04z" fill="#FF3359"/></svg>