<svg width="20" height="20" fill="none" xmlns="http://www.w3.org/2000/svg"><g clip-path="url(#clip0)" fill="#fff"><path d="M14.606 4.982a7.27 7.27 0 00-1.111-.326 4.02 4.02 0 001.484-3.129V.586A.586.586 0 0014.394 0h-.942A4.054 4.054 0 0010 1.94 4.054 4.054 0 006.548 0h-.941a.586.586 0 00-.586.586v.941a4.02 4.02 0 001.485 3.129 7.269 7.269 0 00-1.111.326C2.355 6.164 2.51 9.016 2.51 9.372c0 2.654.893 5.428 2.92 7.76C6.9 18.82 8.779 20 10 20c1.22 0 3.1-1.18 4.569-2.869a11.755 11.755 0 002.92-7.759c0-.392.139-3.214-2.884-4.39zm-4.02-.944a2.868 2.868 0 012.866-2.866h.355v.355a2.868 2.868 0 01-2.865 2.866h-.356v-.355zm-4.393-2.51v-.356h.355a2.868 2.868 0 012.866 2.866v.355H9.06a2.869 2.869 0 01-2.866-2.866zm7.492 14.834c-1.531 1.762-3.101 2.466-3.685 2.466-.584 0-2.155-.706-3.685-2.466a10.584 10.584 0 01-2.633-6.99c0-1.683.68-2.73 2.137-3.298 1.31-.509 2.97-.509 4.181-.509 1.212 0 2.871 0 4.181.51 1.458.566 2.137 1.614 2.137 3.297 0 2.424-.824 4.91-2.633 6.99z"/><path d="M8.117 12.469a.586.586 0 100-1.172.586.586 0 000 1.172zM6.235 9.33a.586.586 0 100-1.171.586.586 0 000 1.172zm3.765 0a.586.586 0 100-1.171.586.586 0 000 1.172zm0 6.277a.586.586 0 100-1.172.586.586 0 000 1.172zm3.766-6.277a.586.586 0 100-1.171.586.586 0 000 1.172zm-1.883 3.139a.586.586 0 100-1.172.586.586 0 000 1.172z"/></g><defs><clipPath id="clip0"><path fill="#fff" d="M0 0h20v20H0z"/></clipPath></defs></svg>