<svg width="49" height="49" fill="none" xmlns="http://www.w3.org/2000/svg"><g clip-path="url(#clip0)"><path d="M24.5 49C38.03 49 49 38.03 49 24.5S38.03 0 24.5 0C10.969 0 0 10.97 0 24.5S10.969 49 24.5 49z" fill="#41B4E6"/><path d="M49 24.5c0-.597-.022-1.188-.064-1.775L38.782 12.572 10.219 23.807l10.928 10.929.143.516.186-.188v.001l-.186.187L33.38 47.34C42.52 43.785 49 34.9 49 24.5z" fill="#0091C8"/><path d="M22.12 28.07l11.073 8.36 5.589-23.858-28.564 11.235 8.692 2.879 15.862-10.64L22.12 28.07z" fill="#fff"/><path d="M18.91 26.686l2.38 8.566.83-7.182 12.652-12.024-15.862 10.64z" fill="#D2D2D7"/><path d="M25.72 30.787l-4.43 4.465.83-7.182 3.6 2.716z" fill="#B9B9BE"/></g><defs><clipPath id="clip0"><path fill="#fff" d="M0 0h49v49H0z"/></clipPath></defs></svg>