<svg width="15" height="15" fill="none" xmlns="http://www.w3.org/2000/svg"><path d="M7.5 2.639a.733.733 0 01-.733-.733V.733a.733.733 0 111.466 0v1.173a.733.733 0 01-.733.733zm0 9.722a.733.733 0 00-.733.733v1.173a.733.733 0 101.466 0v-1.173a.733.733 0 00-.733-.733zm3.437-8.298a.734.734 0 010-1.037l.83-.83a.734.734 0 011.036 1.037l-.83.83a.733.733 0 01-1.036 0zm-6.874 6.875a.732.732 0 00-1.037 0l-.83.829a.733.733 0 001.037 1.037l.83-.83a.732.732 0 000-1.036zM12.361 7.5c0-.405.328-.733.733-.733h1.173a.733.733 0 110 1.466h-1.173a.733.733 0 01-.733-.733zm-9.722 0a.733.733 0 00-.733-.733H.733a.733.733 0 100 1.466h1.173a.733.733 0 00.733-.733zm8.298 3.438a.734.734 0 011.037 0l.83.83a.733.733 0 11-1.037 1.035l-.83-.829a.733.733 0 010-1.036zM4.063 4.063a.733.733 0 000-1.037l-.83-.83a.733.733 0 00-1.036 1.037l.829.83a.732.732 0 001.037 0z" fill="#444"/></svg>