<svg width="49" height="49" fill="none" xmlns="http://www.w3.org/2000/svg"><path d="M0 24.5C0 10.969 10.969 0 24.5 0S49 10.969 49 24.5 38.031 49 24.5 49 0 38.031 0 24.5z" fill="#55ACEE"/><path d="M23.766 19.914l.052.848-.857-.104c-3.12-.398-5.844-1.747-8.158-4.014l-1.13-1.124-.292.83c-.617 1.851-.223 3.806 1.063 5.121.685.727.53.83-.652.398-.41-.138-.77-.242-.805-.19-.12.12.291 1.695.617 2.318.445.865 1.354 1.713 2.348 2.215l.84.398-.995.017c-.96 0-.994.017-.89.38.342 1.125 1.696 2.319 3.204 2.838l1.062.363-.925.554a9.647 9.647 0 01-4.593 1.28c-.77.017-1.405.087-1.405.139 0 .173 2.09 1.142 3.307 1.522 3.65 1.125 7.986.64 11.242-1.28 2.314-1.367 4.628-4.083 5.707-6.713.583-1.401 1.166-3.962 1.166-5.19 0-.796.051-.9 1.01-1.852.566-.553 1.097-1.159 1.2-1.332.172-.328.154-.328-.72-.034-1.456.519-1.662.45-.942-.33.531-.553 1.165-1.556 1.165-1.85 0-.052-.257.034-.548.19-.309.173-.994.433-1.508.588l-.926.294-.84-.57c-.462-.312-1.113-.658-1.456-.762-.874-.242-2.21-.207-2.999.07-2.142.778-3.496 2.785-3.342 4.982z" fill="#fff"/></svg>