<svg width="50" height="50" fill="none" xmlns="http://www.w3.org/2000/svg"><rect width="50" height="50" rx="25" fill="#4680C2"/><path fill-rule="evenodd" clip-rule="evenodd" d="M40.232 16.64c.237-.76 0-1.314-1.05-1.314h-3.489c-.88 0-1.287.484-1.524 1.003 0 0-1.796 4.426-4.302 7.296-.813.83-1.186 1.107-1.626 1.107-.238 0-.542-.277-.542-1.037v-7.09c0-.899-.271-1.314-1.017-1.314h-5.487c-.542 0-.88.415-.88.83 0 .865 1.252 1.072 1.388 3.493v5.256c0 1.141-.203 1.349-.644 1.349-1.185 0-4.065-4.461-5.792-9.544-.339-1.003-.678-1.384-1.558-1.384h-3.523c-1.017 0-1.186.485-1.186 1.003 0 .934 1.186 5.637 5.521 11.861 2.88 4.254 6.979 6.536 10.671 6.536 2.236 0 2.507-.519 2.507-1.383v-3.216c0-1.038.203-1.21.914-1.21.508 0 1.423.276 3.49 2.316 2.37 2.42 2.777 3.527 4.098 3.527h3.49c1.015 0 1.49-.518 1.219-1.521-.305-1.003-1.457-2.455-2.947-4.184-.813-.968-2.033-2.04-2.406-2.56-.508-.69-.372-.967 0-1.59-.033 0 4.235-6.155 4.675-8.23z" fill="#fff"/></svg>