<svg width="50" height="50" viewBox="0 0 50 50" fill="none" xmlns="http://www.w3.org/2000/svg">
<g clip-path="url(#clip0)">
<path d="M29.2663 39.3376C30.2667 38.2826 30.8824 36.8593 30.8824 35.2941C30.8824 32.0506 28.2435 29.4118 25 29.4118C21.7565 29.4118 19.1176 32.0506 19.1176 35.2941C19.1176 36.8593 19.7333 38.2826 20.7337 39.3376C19.8515 39.827 19.0615 40.4631 18.3969 41.213C17.5522 39.1694 16.0188 37.4803 14.0872 36.4367C15.3719 35.2288 16.1765 33.5159 16.1765 31.6176C16.1765 27.9686 13.2078 25 9.55882 25C5.9098 25 2.94118 27.9686 2.94118 31.6176C2.94118 33.5159 3.74578 35.2288 5.03039 36.4367C2.03784 38.0534 0 41.2196 0 44.8529V50H33.8235V47.0588C33.8235 43.74 31.9814 40.8437 29.2663 39.3376ZM22.0588 35.2941C22.0588 33.6724 23.3782 32.3529 25 32.3529C26.6218 32.3529 27.9412 33.6724 27.9412 35.2941C27.9412 36.9159 26.6218 38.2353 25 38.2353C23.3782 38.2353 22.0588 36.9159 22.0588 35.2941ZM5.88235 31.6176C5.88235 29.5904 7.53157 27.9412 9.55882 27.9412C11.5861 27.9412 13.2353 29.5904 13.2353 31.6176C13.2353 33.6449 11.5861 35.2941 9.55882 35.2941C7.53157 35.2941 5.88235 33.6449 5.88235 31.6176ZM2.94118 47.0588V44.8529C2.94118 41.2039 5.9098 38.2353 9.55882 38.2353C13.2078 38.2353 16.1765 41.2039 16.1765 44.8529V47.0588H2.94118ZM19.1176 47.0588C19.1176 43.8153 21.7565 41.1765 25 41.1765C28.2435 41.1765 30.8824 43.8153 30.8824 47.0588H19.1176Z" fill="white"/>
<path d="M36.7646 0C29.4666 0 23.5293 5.93735 23.5293 13.2353C23.5293 15.8842 24.3283 18.4705 25.8008 20.6488L19.979 26.4706H36.7646C44.0625 26.4706 49.9999 20.5332 49.9999 13.2353C49.9999 5.93735 44.0625 0 36.7646 0ZM36.7646 23.5294H27.0796L29.7353 20.8737L28.8705 19.8416C27.3228 17.9944 26.4705 15.6482 26.4705 13.2353C26.4705 7.55912 31.0884 2.94118 36.7646 2.94118C42.4408 2.94118 47.0587 7.55912 47.0587 13.2353C47.0587 18.9115 42.4408 23.5294 36.7646 23.5294Z" fill="white"/>
<path d="M29.4116 11.7646H32.3528V14.7058H29.4116V11.7646Z" fill="white"/>
<path d="M35.2939 11.7646H38.2351V14.7058H35.2939V11.7646Z" fill="white"/>
<path d="M41.1763 11.7646H44.1174V14.7058H41.1763V11.7646Z" fill="white"/>
<path d="M42.647 42.6471H36.7646V45.5882H45.5882V27.9412H42.647V42.6471Z" fill="white"/>
<path d="M7.3528 7.35292H20.5881V4.41174H4.41162V22.0588H7.3528V7.35292Z" fill="white"/>
</g>
<defs>
<clipPath id="clip0">
<rect width="50" height="50" fill="white"/>
</clipPath>
</defs>
</svg>
