<svg width="50" height="50" viewBox="0 0 50 50" fill="none" xmlns="http://www.w3.org/2000/svg">
<path d="M47.9618 24.9991C49.287 23.3462 49.858 21.1792 49.4716 19.0484C49.0673 16.8187 47.699 14.9496 45.7712 13.8906C46.4019 11.692 45.9877 9.27959 44.582 7.40469C43.1914 5.55051 40.9767 4.44347 38.6576 4.44347C38.3287 4.44347 38.0014 4.46541 37.6773 4.50898C36.5389 1.82541 33.8777 0 30.8675 0C28.4802 0 26.3536 1.13643 25 2.89684C23.6464 1.13643 21.5198 0 19.1324 0C16.1209 0 13.4588 1.82704 12.3211 4.51265C11.9962 4.46918 11.668 4.44735 11.3373 4.44735C8.98346 4.44735 6.82499 5.52602 5.4155 7.40714C4.01081 9.28204 3.59713 11.6943 4.22764 13.8926C2.29979 14.9514 0.931624 16.8209 0.527338 19.0519C0.14193 21.1822 0.713256 23.3485 2.03815 25.0009C0.71295 26.6538 0.14193 28.8207 0.528358 30.9517C0.932644 33.1814 2.30101 35.0504 4.22866 36.1093C3.59795 38.308 4.01213 40.7204 5.41785 42.5953C6.80856 44.4495 9.02326 45.5565 11.3422 45.5565C11.6711 45.5565 11.9984 45.5346 12.3224 45.491C13.461 48.1747 16.122 50 19.1324 50C21.5197 50 23.6463 48.8636 25 47.1032C26.3536 48.8636 28.4802 50 30.8675 50C33.8792 50 36.5413 48.173 37.6789 45.4874C38.0038 45.5308 38.332 45.5527 38.6626 45.5527C41.0165 45.5527 43.1752 44.4739 44.5846 42.5929C45.9892 40.718 46.4028 38.3057 45.7723 36.1076C47.7003 35.0486 49.0684 33.1791 49.4729 30.9481C49.8581 28.8178 49.2867 26.6515 47.9618 24.9991ZM23.4694 42.602C23.4694 44.9934 21.5238 46.9388 19.1324 46.9388C17.0607 46.9388 15.2713 45.4643 14.8776 43.4328L14.8568 43.3254C14.817 43.0879 14.7959 42.8451 14.7959 42.602C14.7959 41.8958 14.9645 41.2158 15.2809 40.6066C16.4317 41.3136 17.7577 41.6927 19.1424 41.6926L19.1422 38.6313C17.9838 38.6314 16.8947 38.1803 16.0755 37.3611C15.2565 36.5421 14.8054 35.4533 14.8053 34.2949L11.7441 34.2953C11.7442 35.7958 12.1891 37.2276 13.0145 38.4417C12.2062 39.625 11.7619 41.0161 11.7377 42.4766C11.6065 42.4888 11.4747 42.4953 11.3423 42.4953C9.96142 42.4953 8.69468 41.8624 7.86703 40.7588C6.84846 39.4003 6.71815 37.5596 7.53509 36.0695L7.89856 35.4065L7.27969 33.9962L6.59264 33.795C5.00479 33.33 3.8354 32.0313 3.5406 30.4056C3.28254 28.9822 3.75499 27.5326 4.77836 26.5306H11.8938C12.1851 27.9226 12.8721 29.2018 13.901 30.2309C15.2432 31.5682 17.0928 32.398 19.1326 32.398H23.4694V42.602ZM23.4694 29.3367H19.1326C16.8234 29.3367 14.9303 27.5222 14.8032 25.2441C14.8027 25.2365 14.8019 25.2291 14.8015 25.2214C14.7978 25.1481 14.7959 25.0743 14.7959 25.0001C14.7959 23.8416 15.2471 22.7527 16.0662 21.9337L13.9017 19.7689C12.8725 20.798 12.1854 22.0773 11.8939 23.4694H4.77652C3.75438 22.4678 3.28234 21.0192 3.53948 19.5973C3.83428 17.9708 5.00377 16.6716 6.59152 16.2068L7.27877 16.0057L7.89744 14.5954L7.53397 13.9326C6.71713 12.4424 6.84713 10.6015 7.8652 9.24276C8.69101 8.14061 9.95652 7.50857 11.3371 7.50857C11.4714 7.50857 11.605 7.5152 11.7376 7.52745C11.7625 8.98653 12.2067 10.3761 13.0143 11.5584C12.1889 12.7726 11.744 14.2042 11.7439 15.7048L14.8051 15.7052C14.8052 14.5468 15.2563 13.4581 16.0753 12.639C16.8945 11.8199 17.9835 11.3688 19.1417 11.3688C19.142 11.3688 19.1422 8.30755 19.1422 8.30755C17.7572 8.30755 16.4315 8.68663 15.2807 9.39347C14.9644 8.78418 14.7959 8.10418 14.7959 7.39796C14.7959 7.15582 14.8169 6.91388 14.8564 6.67724L14.8777 6.56735C15.2713 4.53571 17.0608 3.06122 19.1324 3.06122C21.5238 3.06122 23.4694 5.00663 23.4694 7.39796V29.3367ZM26.5306 7.39816C26.5306 5.00663 28.4761 3.06122 30.8675 3.06122C32.9393 3.06122 34.7287 4.53571 35.1224 6.56735L35.1429 6.67337C35.1828 6.91133 35.2041 7.15449 35.2041 7.39796C35.2041 8.10418 35.0356 8.78418 34.7191 9.39337C33.5683 8.68653 32.2422 8.30735 30.8575 8.30745L30.8577 11.3687C32.0162 11.3686 33.1052 11.8197 33.9245 12.639C34.7435 13.4578 35.1945 14.5467 35.1947 15.7051L38.2559 15.7047C38.2557 14.2041 37.8108 12.7723 36.9855 11.5583C37.7938 10.375 38.2381 8.98388 38.2622 7.52347C38.3935 7.51133 38.5253 7.5048 38.6577 7.5048C40.0387 7.5048 41.3053 8.13776 42.1331 9.24133C43.1515 10.5998 43.2819 12.4405 42.465 13.9306L42.1007 14.5952L42.4084 15.2878L42.7206 16.004L43.4076 16.2052C44.9955 16.6702 46.1649 17.9689 46.4596 19.5947C46.7177 21.018 46.2453 22.4678 45.2217 23.4696H38.1063C37.815 22.0777 37.128 20.7984 36.099 19.7692C34.7567 18.432 32.9071 17.6022 30.8673 17.6022H26.5306V7.39816ZM46.4604 30.4026C46.1655 32.0292 44.9961 33.3284 43.4085 33.7932L42.7229 33.9939L42.1033 35.4062L42.4658 36.0675C43.2827 37.5576 43.1526 39.3985 42.1347 40.7572C41.3088 41.8595 40.0434 42.4915 38.6626 42.4914C38.5284 42.4914 38.3949 42.4848 38.2622 42.4725C38.2373 41.0136 37.7931 39.6239 36.9856 38.4417C37.811 37.2276 38.2558 35.7959 38.2561 34.2953L35.1949 34.2949C35.1947 35.4533 34.7437 36.5421 33.9246 37.3611C33.1056 38.1802 32.0166 38.6313 30.8583 38.6313C30.858 38.6313 30.8577 41.6926 30.8577 41.6926C32.2427 41.6926 33.5686 41.3135 34.7193 40.6066C35.0357 41.2158 35.2043 41.8958 35.2043 42.602C35.2043 42.8454 35.1831 43.0886 35.1432 43.3266L35.1225 43.4329C34.7287 45.4643 32.9392 46.9388 30.8675 46.9388C28.4761 46.9388 26.5306 44.9934 26.5306 42.602V20.6633H30.8673C33.1766 20.6633 35.0697 22.4778 35.1968 24.7559C35.1972 24.7635 35.1981 24.7709 35.1985 24.7786C35.2021 24.8519 35.2041 24.9257 35.2041 24.9999C35.2041 26.1584 34.7529 27.2473 33.9338 28.0663L36.0982 30.2311C37.1273 29.202 37.8147 27.9227 38.1061 26.5306H45.2235C46.2455 27.5322 46.7176 28.9808 46.4604 30.4026Z" fill="white"/>
</svg>
