<svg width="45" height="45" viewBox="0 0 45 45" fill="none" xmlns="http://www.w3.org/2000/svg">
<path d="M42.2754 36.0863C42.2754 34.5149 42.2754 23.7332 42.2754 22.4121C42.2754 17.3235 38.1355 13.1836 33.0469 13.1836C27.9521 13.1836 23.8184 17.3297 23.8184 22.4121C23.8184 23.7444 23.8184 34.5011 23.8184 36.1521C23.3078 36.7923 22.8672 37.4763 22.5 38.1942C21.9468 37.1128 21.2274 36.1083 20.3537 35.2143C19.3567 34.1944 18.2165 33.3777 16.9809 32.7836C19.5078 31.1356 21.1816 28.2842 21.1816 25.0488V22.4121C21.1816 17.3235 17.0417 13.1836 11.9531 13.1836H1.31836C0.590273 13.1836 0 13.7739 0 14.502C0 17.0426 1.04194 19.3467 2.72461 21.0171V25.0488C2.72461 28.281 4.39523 31.13 6.91796 32.7789C2.95594 34.6683 0 38.8048 0 43.6816C0 44.4097 0.590273 45 1.31836 45C2.51332 45 42.4867 45 43.6816 45C44.4097 45 45 44.4097 45 43.6816C45 40.8999 44.04 38.2436 42.2754 36.0863ZM2.77093 15.8203H11.9531C15.1364 15.8203 17.8 18.0887 18.4125 21.0938H9.31641C6.08959 21.0938 3.39073 18.8208 2.77093 15.8203ZM5.36133 25.0488V22.8563C6.56253 23.4165 7.90304 23.7305 9.31641 23.7305H18.5449V25.0488C18.5449 28.6835 15.5878 31.6406 11.9531 31.6406C8.31841 31.6406 5.36133 28.6835 5.36133 25.0488ZM2.73252 42.3633C3.38959 37.8627 7.34511 34.2773 11.9531 34.2773C16.6029 34.2773 20.4604 37.7994 21.0913 42.3633H2.73252ZM33.0469 15.8203C36.2302 15.8203 38.8935 18.0886 39.506 21.0938H36.0547C33.1551 21.0938 30.4507 19.7432 28.7105 17.4538C29.8705 16.438 31.3875 15.8203 33.0469 15.8203ZM26.4551 22.4121C26.4551 21.4157 26.6785 20.4708 27.076 19.6232C29.3144 22.218 32.5753 23.7305 36.0547 23.7305H39.6387V25.0488C39.6387 28.6835 36.6816 31.6406 33.0469 31.6406C29.4122 31.6406 26.4551 28.6835 26.4551 25.0488V22.4121ZM39.6387 31.5003V33.6712C39.1399 33.333 38.6197 33.0353 38.082 32.7788C38.6467 32.4098 39.1686 31.9805 39.6387 31.5003ZM26.4551 31.5003C26.9272 31.9827 27.4516 32.4135 28.0192 32.7837C27.4782 33.0438 26.9554 33.3463 26.4551 33.6902V31.5003ZM23.9087 42.3633C24.5395 37.7994 28.3971 34.2773 33.0469 34.2773C37.6549 34.2773 41.6104 37.8627 42.2675 42.3633H23.9087Z" fill="white"/>
<path d="M25.7705 0C24.4971 0 23.3769 0.518027 22.5 1.50513C21.6231 0.518027 20.5028 0 19.2295 0C16.6563 0 14.6406 2.13855 14.6406 4.86861C14.6405 7.73438 16.8687 9.61488 19.9524 12.2177C20.4904 12.6718 21.0468 13.1414 21.6365 13.6525C21.8843 13.8672 22.1921 13.9746 22.5 13.9746C22.8079 13.9746 23.1157 13.8672 23.3634 13.6525C23.9532 13.1413 24.5097 12.6717 25.0478 12.2175C27.9073 9.80402 30.3594 7.83949 30.3594 4.86853C30.3594 2.13855 28.3437 0 25.7705 0ZM23.347 10.2026C23.0704 10.4361 22.7889 10.6737 22.4999 10.9194C22.211 10.6737 21.9296 10.4362 21.653 10.2028C18.6977 7.70845 17.2772 6.43975 17.2772 4.86861C17.2773 3.75952 17.9479 2.63672 19.2295 2.63672C20.6451 2.63672 21.1925 4.38144 21.2305 4.50844C21.3838 5.08614 21.9021 5.48868 22.5001 5.48868C23.0981 5.48868 23.6164 5.08623 23.7696 4.50844C23.8074 4.38144 24.3548 2.63672 25.7705 2.63672C27.0521 2.63672 27.7226 3.75952 27.7226 4.86861C27.7226 6.50584 26.0603 7.91253 23.347 10.2026Z" fill="white"/>
</svg>
