<svg width="60" height="42" viewBox="0 0 60 42" fill="none" xmlns="http://www.w3.org/2000/svg">
<path opacity="0.1" d="M17.72 41.72C29.42 41.72 34.88 31.58 34.88 21.02C34.88 10.46 29.42 0.379997 17.72 0.379997C6.02 0.379997 0.56 10.46 0.56 21.02C0.56 31.58 6.02 41.72 17.72 41.72ZM17.72 32.6C12.92 32.6 11 28.1 11 21.02C11 13.94 12.92 9.5 17.72 9.5C22.52 9.5 24.44 13.94 24.44 21.02C24.44 28.1 22.52 32.6 17.72 32.6ZM59.6614 41V0.979997H50.7214L36.7414 14.78L42.6214 20.96L49.3414 14.18V41H59.6614Z" fill="black"/>
</svg>
