<svg width="57" height="57" viewBox="0 0 57 57" fill="none" xmlns="http://www.w3.org/2000/svg">
<path d="M53.5488 20.0391H43.5293V53.6602H40.1895V33.3984H30.1699V53.6602H26.8301V26.7188H16.8105V53.6602H13.4707V36.7383H3.45117V53.6602H0V57H57V53.6602H53.5488V20.0391ZM46.8691 23.3789H50.209V53.6602H46.8691V23.3789ZM33.5098 36.7383H36.8496V53.6602H33.5098V36.7383ZM20.1504 30.0586H23.4902V53.6602H20.1504V30.0586ZM6.79102 40.0781H10.1309V53.6602H6.79102V40.0781Z" fill="#FF3359"/>
<path d="M43.5291 3.33984H51.2825L35.1827 19.3506L21.8233 5.99123L0.492188 27.2046L2.84722 29.5728L21.8169 10.708L35.1762 24.0674L53.6599 5.68575V13.3594H56.9998V0H43.5291V3.33984Z" fill="#FF3359"/>
</svg>
