<svg width="50" height="50" viewBox="0 0 50 50" fill="none" xmlns="http://www.w3.org/2000/svg">
<path d="M27.5974 0H0V50H50V0H27.5974ZM2.94118 2.94118H22.4026L19.7556 7.35294H2.94118V2.94118ZM47.0588 47.0588H2.94118V10.2941H21.4209L25.8326 2.94118H47.0588V47.0588Z" fill="white"/>
<path d="M5.88232 32.353H22.0588V17.6471H5.88232V32.353ZM8.8235 20.5883H19.1176V29.4118H8.8235V20.5883Z" fill="white"/>
<path d="M5.88232 35.2942H22.0588V38.2354H5.88232V35.2942Z" fill="white"/>
<path d="M5.88232 41.1764H22.0588V44.1176H5.88232V41.1764Z" fill="white"/>
<path d="M44.1174 44.1177V35.2942H27.9409V44.1177H44.1174ZM30.8821 38.2354H41.1762V41.1765H30.8821V38.2354Z" fill="white"/>
<path d="M27.9409 29.4117H44.1174V32.3529H27.9409V29.4117Z" fill="white"/>
<path d="M27.9409 23.5294H44.1174V26.4706H27.9409V23.5294Z" fill="white"/>
<path d="M27.9409 17.6471H44.1174V20.5883H27.9409V17.6471Z" fill="white"/>
<path d="M35.2939 7.35291H38.2351V10.2941H35.2939V7.35291Z" fill="white"/>
<path d="M29.4116 7.35291H32.3528V10.2941H29.4116V7.35291Z" fill="white"/>
<path d="M41.1763 7.35291H44.1174V10.2941H41.1763V7.35291Z" fill="white"/>
</svg>
