<svg width="38" height="50" viewBox="0 0 38 50" fill="none" xmlns="http://www.w3.org/2000/svg">
<path d="M33.9133 20.1729V14.9135C33.9133 6.69014 27.2231 0 18.9998 0C10.7765 0 4.08633 6.69014 4.08633 14.9135V20.1729H0.724121V50H37.2755V20.1729H33.9133ZM7.01602 14.9135C7.01602 8.30557 12.3919 2.92969 18.9998 2.92969C25.6077 2.92969 30.9836 8.30557 30.9836 14.9135V20.1729H27.189V14.9135C27.189 10.398 23.5153 6.72441 18.9998 6.72441C14.4843 6.72441 10.8106 10.398 10.8106 14.9135V20.1729H7.01602V14.9135ZM24.2593 20.1729H13.7403V14.9135C13.7403 12.0135 16.0997 9.6541 18.9998 9.6541C21.8999 9.6541 24.2593 12.0135 24.2593 14.9135V20.1729ZM34.3458 47.0703H3.65381V23.1026H34.3458V47.0703Z" fill="white"/>
<path d="M17.5351 37.0559V42.5432H20.4648V37.0559C22.4123 36.4341 23.827 34.6078 23.827 32.4568C23.827 29.7951 21.6615 27.6297 18.9999 27.6297C16.3383 27.6297 14.1729 29.7951 14.1729 32.4568C14.1729 34.6078 15.5875 36.4342 17.5351 37.0559ZM18.9999 30.5595C20.0461 30.5595 20.8973 31.4107 20.8973 32.4569C20.8973 33.5031 20.0461 34.3542 18.9999 34.3542C17.9537 34.3542 17.1025 33.5031 17.1025 32.4569C17.1025 31.4107 17.9537 30.5595 18.9999 30.5595Z" fill="white"/>
</svg>
