<svg width="50" height="50" viewBox="0 0 50 50" fill="none" xmlns="http://www.w3.org/2000/svg">
<path d="M42.6777 7.32232C37.9558 2.60041 31.6778 0 25 0C18.3222 0 12.0442 2.60041 7.32232 7.32232C2.60041 12.0442 0 18.3222 0 25C0 31.6778 2.60041 37.9558 7.32232 42.6777C12.0442 47.3996 18.3222 50 25 50C31.6778 50 37.9558 47.3996 42.6777 42.6777C47.3996 37.9558 50 31.6778 50 25C50 18.3222 47.3995 12.0442 42.6777 7.32232ZM40.6059 40.6059C36.4374 44.7745 30.8951 47.0701 25 47.0701C19.1049 47.0701 13.5625 44.7744 9.39409 40.6059C5.22564 36.4375 2.92982 30.8951 2.92982 25C2.92982 19.1049 5.22554 13.5625 9.394 9.394C13.5625 5.22544 19.1049 2.92982 25 2.92982C30.8951 2.92982 36.4375 5.22554 40.6059 9.394C44.7744 13.5625 47.0701 19.1048 47.0701 24.9999C47.0701 30.895 44.7745 36.4375 40.6059 40.6059Z" fill="white"/>
<path d="M39.6503 16.6273L37.109 18.0856C39.8801 22.9143 39.5356 28.9277 36.2317 33.4054C35.2538 34.7308 34.0824 35.8492 32.7379 36.7449L31.8292 34.6628L27.6772 40.753L34.9661 41.8502L33.9249 39.4647C35.7367 38.3375 37.302 36.8894 38.5892 35.1449C42.5829 29.7323 42.9994 22.4637 39.6503 16.6273Z" fill="white"/>
<path d="M16.6146 36.3645C13.2643 33.8925 11.2151 30.097 10.9466 25.9929L13.1987 26.2464L10.0003 19.6055L5.40576 25.3693L7.997 25.661C8.17523 30.8212 10.6824 35.6285 14.875 38.722C17.8138 40.8905 21.2885 42.0353 24.9293 42.0352C24.9548 42.0352 24.9808 42.0352 25.0064 42.0351L24.9934 39.1053C21.9574 39.1168 19.0629 38.1709 16.6146 36.3645Z" fill="white"/>
<path d="M13.6553 16.7473C17.7194 11.2395 25.1476 9.52826 31.149 12.4952L29.8026 14.3201L37.153 14.8707L34.4587 8.00983L32.9112 10.1071C29.5518 8.31326 25.6937 7.70405 21.904 8.39354C17.6393 9.16935 13.8726 11.5185 11.2978 15.008C10.9499 15.4794 10.6227 15.9744 10.3252 16.479L12.849 17.967C13.0956 17.5485 13.3669 17.1382 13.6553 16.7473Z" fill="white"/>
</svg>
