<svg width="71" height="42" viewBox="0 0 71 42" fill="none" xmlns="http://www.w3.org/2000/svg">
<path opacity="0.1" d="M17.72 41.72C29.42 41.72 34.88 31.58 34.88 21.02C34.88 10.46 29.42 0.379997 17.72 0.379997C6.02 0.379997 0.56 10.46 0.56 21.02C0.56 31.58 6.02 41.72 17.72 41.72ZM17.72 32.6C12.92 32.6 11 28.1 11 21.02C11 13.94 12.92 9.5 17.72 9.5C22.52 9.5 24.44 13.94 24.44 21.02C24.44 28.1 22.52 32.6 17.72 32.6ZM70.4614 41V32H55.8214C65.7814 25.04 70.1614 19.82 70.1614 13.7C70.1614 5.66 63.3814 0.379997 53.9614 0.379997C48.3814 0.379997 42.0214 2.36 37.7614 7.04L43.4614 13.88C46.3414 11.18 49.7014 9.5 54.1414 9.5C57.0814 9.5 59.6614 10.94 59.6614 13.7C59.6614 17.66 56.4214 20.42 39.0814 32.96V41H70.4614Z" fill="black"/>
</svg>
