<svg width="50" height="50" viewBox="0 0 50 50" fill="none" xmlns="http://www.w3.org/2000/svg">
<path d="M43.6523 8.96047H35.2214V6.97473C35.2214 3.47463 32.3738 0.627075 28.8737 0.627075H6.34766C2.84756 0.627075 0 3.47463 0 6.97473V28.4592C0 31.9593 2.84756 34.8069 6.34766 34.8069H8.3334V41.0399L14.8116 37.4409C15.1374 40.6376 17.8451 43.1403 21.1264 43.1403H30.4473L41.6667 49.3733V43.1403H43.6523C47.1524 43.1403 50 40.2927 50 36.7926V15.3082C50 11.8079 47.1524 8.96047 43.6523 8.96047ZM47.0703 36.7925C47.0703 38.6772 45.537 40.2105 43.6523 40.2105H38.737V44.3942L31.2064 40.2105H21.1264C19.2417 40.2105 17.7084 38.6772 17.7084 36.7925V15.3081C17.7084 13.4235 19.2417 11.8902 21.1264 11.8902H43.6523C45.537 11.8902 47.0703 13.4235 47.0703 15.3081V36.7925ZM2.92969 28.4592V6.97473C2.92969 5.09006 4.46299 3.55676 6.34766 3.55676H28.8737C30.7584 3.55676 32.2917 5.09006 32.2917 6.97473V8.96038H21.1264C17.6263 8.96038 14.7787 11.8079 14.7787 15.308V34.1076L11.2631 36.0608V31.8772H6.34766C4.46299 31.8772 2.92969 30.3439 2.92969 28.4592Z" fill="white"/>
<path d="M23.0918 24.5446H41.6873V27.4742H23.0918V24.5446Z" fill="white"/>
<path d="M23.0918 30.9819H34.9253V33.9116H23.0918V30.9819Z" fill="white"/>
<path d="M23.0918 18.0913H41.6669V21.021H23.0918V18.0913Z" fill="white"/>
</svg>