<svg width="50" height="50" viewBox="0 0 50 50" fill="none" xmlns="http://www.w3.org/2000/svg">
<path d="M5.85938 23.4393H32.2266V26.369H5.85938V23.4393Z" fill="white"/>
<path d="M14.6484 29.2987H32.2266V32.2284H14.6484V29.2987Z" fill="white"/>
<path d="M5.85938 35.1581H32.2266V38.0878H5.85938V35.1581Z" fill="white"/>
<path d="M0 43.9472H5.85938V49.9981L13.6839 43.9472H38.0859V0.00183105H0V43.9472ZM2.92969 2.93152H35.1562V41.0175H12.6833L8.78906 44.029V41.0175H2.92969V2.93152Z" fill="white"/>
<path d="M13.1836 6.42078V19.9502L26.713 13.1854L13.1836 6.42078ZM16.1133 11.1611L20.162 13.1854L16.1133 15.2098V11.1611Z" fill="white"/>
<path d="M45.6055 2.93152C43.1823 2.93152 41.2109 4.90291 41.2109 7.32605V23.4393H41.2263C41.4501 34.4461 44.1267 41.2647 44.2455 41.5615L45.6055 44.9617L46.9655 41.5615C47.0843 41.2647 49.7609 34.4461 49.9848 23.4393H50C50 19.6131 50 10.5075 50 7.32605C50 4.90291 48.0286 2.93152 45.6055 2.93152ZM45.6055 35.7021C44.944 32.7593 44.2679 28.5667 44.1568 23.4393H47.054C46.9431 28.5667 46.2668 32.7595 45.6055 35.7021ZM44.1406 20.5097V7.32605C44.1406 6.51834 44.7978 5.86121 45.6055 5.86121C46.4132 5.86121 47.0703 6.51834 47.0703 7.32605V20.5097H44.1406Z" fill="white"/>
<path d="M5.85938 29.2987H11.7188V32.2284H5.85938V29.2987Z" fill="white"/>
</svg>
