<svg width="71" height="42" viewBox="0 0 71 42" fill="none" xmlns="http://www.w3.org/2000/svg">
<path opacity="0.1" d="M17.72 41.72C29.42 41.72 34.88 31.58 34.88 21.02C34.88 10.46 29.42 0.379997 17.72 0.379997C6.02 0.379997 0.56 10.46 0.56 21.02C0.56 31.58 6.02 41.72 17.72 41.72ZM17.72 32.6C12.92 32.6 11 28.1 11 21.02C11 13.94 12.92 9.5 17.72 9.5C22.52 9.5 24.44 13.94 24.44 21.02C24.44 28.1 22.52 32.6 17.72 32.6ZM53.9614 41.72C63.9214 41.72 70.5214 36.86 70.5214 29.84C70.5214 24.08 65.3614 20.78 61.1014 20.36C65.8414 19.58 69.8614 16.04 69.8614 11.36C69.8614 4.76 64.1614 0.379997 53.9614 0.379997C46.5814 0.379997 41.3014 3.08 37.9414 6.86L42.9214 13.34C45.7414 10.82 49.2214 9.5 52.8814 9.5C56.7214 9.5 59.6014 10.64 59.6014 13.16C59.6014 15.26 57.2614 16.28 53.1214 16.28C51.6214 16.28 48.5014 16.28 47.7214 16.22V25.4C48.3214 25.34 51.3814 25.34 53.1214 25.34C58.5814 25.34 60.2614 26.42 60.2614 28.7C60.2614 30.92 57.9814 32.6 53.5414 32.6C50.0614 32.6 45.5014 31.22 42.6214 28.4L37.4014 35.42C40.5214 39.02 46.2814 41.72 53.9614 41.72Z" fill="black"/>
</svg>
