<svg width="556" height="371" viewBox="0 0 556 371" fill="none" xmlns="http://www.w3.org/2000/svg">
<rect x="91.2671" y="197.065" width="173" height="40.3618" rx="15" transform="rotate(-13.0278 91.2671 197.065)" fill="white"/>
<circle cx="96" cy="202" r="2" fill="#FF3359"/>
<path d="M115.861 212.15C115.707 211.485 115.674 210.797 115.761 210.087C115.846 209.367 116.057 208.694 116.394 208.068C116.739 207.43 117.207 206.873 117.798 206.397C118.388 205.921 119.104 205.585 119.946 205.391C120.954 205.157 121.868 205.181 122.689 205.462C123.509 205.743 124.184 206.2 124.714 206.833L123.555 208.07C123.322 207.774 123.07 207.536 122.799 207.358C122.528 207.18 122.247 207.054 121.956 206.979C121.665 206.904 121.373 206.873 121.08 206.886C120.785 206.888 120.508 206.919 120.248 206.98C119.666 207.114 119.185 207.352 118.803 207.692C118.42 208.021 118.122 208.413 117.909 208.867C117.707 209.319 117.584 209.802 117.538 210.316C117.504 210.828 117.541 211.323 117.652 211.801C117.777 212.341 117.984 212.835 118.274 213.283C118.564 213.73 118.908 214.105 119.306 214.407C119.715 214.707 120.164 214.92 120.653 215.048C121.14 215.165 121.644 215.164 122.163 215.043C122.433 214.981 122.702 214.886 122.968 214.759C123.242 214.619 123.492 214.446 123.718 214.24C123.952 214.022 124.152 213.773 124.317 213.494C124.493 213.212 124.616 212.894 124.687 212.538L126.328 213.029C126.248 213.485 126.084 213.912 125.836 214.309C125.586 214.695 125.284 215.044 124.929 215.356C124.574 215.668 124.181 215.934 123.75 216.154C123.33 216.372 122.902 216.531 122.465 216.632C121.686 216.813 120.935 216.811 120.214 216.628C119.493 216.444 118.837 216.141 118.247 215.72C117.654 215.287 117.15 214.764 116.734 214.148C116.315 213.523 116.024 212.856 115.861 212.15ZM131.982 214.496C131.338 214.645 130.73 214.665 130.157 214.557C129.595 214.446 129.088 214.24 128.635 213.94C128.182 213.64 127.798 213.258 127.483 212.794C127.165 212.32 126.942 211.803 126.812 211.242C126.682 210.68 126.657 210.122 126.736 209.568C126.814 209.002 126.99 208.485 127.264 208.017C127.549 207.546 127.92 207.137 128.377 206.79C128.843 206.441 129.394 206.194 130.027 206.047C130.661 205.9 131.259 205.882 131.821 205.993C132.394 206.102 132.907 206.306 133.359 206.606C133.822 206.904 134.213 207.29 134.53 207.764C134.846 208.228 135.068 208.74 135.198 209.301C135.328 209.862 135.354 210.426 135.277 210.991C135.197 211.546 135.015 212.059 134.73 212.53C134.455 212.999 134.084 213.407 133.618 213.756C133.161 214.103 132.616 214.349 131.982 214.496ZM128.577 210.85C128.668 211.245 128.815 211.594 129.016 211.898C129.218 212.201 129.457 212.453 129.733 212.651C130.006 212.84 130.305 212.973 130.63 213.051C130.963 213.117 131.3 213.11 131.643 213.031C131.986 212.951 132.288 212.81 132.547 212.608C132.815 212.393 133.029 212.135 133.19 211.835C133.35 211.535 133.454 211.205 133.502 210.843C133.55 210.482 133.528 210.104 133.437 209.709C133.348 209.324 133.202 208.98 133.001 208.676C132.797 208.362 132.557 208.106 132.281 207.907C132.005 207.708 131.7 207.576 131.368 207.511C131.043 207.432 130.709 207.433 130.366 207.512C130.034 207.589 129.734 207.735 129.466 207.951C129.209 208.163 129 208.42 128.839 208.72C128.679 209.02 128.571 209.357 128.515 209.731C128.467 210.092 128.488 210.465 128.577 210.85ZM135.805 204.858L137.489 204.468L139.032 211.14L142.166 210.415L140.622 203.744L142.321 203.35L143.865 210.022L145.283 209.694L146.192 213.622L144.68 213.972L144.114 211.525L137.691 213.011L135.805 204.858ZM148.037 208.055L150.891 201.367L152.201 201.064L154.087 209.217L152.404 209.607L151.109 204.01L148.304 210.555L146.916 210.876L145.03 202.724L146.714 202.334L148.037 208.055ZM158.389 208.386C157.994 208.477 157.611 208.5 157.239 208.455C156.875 208.397 156.542 208.282 156.24 208.111C155.948 207.938 155.693 207.712 155.476 207.434C155.269 207.154 155.123 206.831 155.039 206.468C154.95 206.083 154.952 205.716 155.046 205.366C155.141 205.015 155.312 204.691 155.56 204.393C155.819 204.092 156.142 203.831 156.529 203.61C156.926 203.387 157.379 203.216 157.889 203.099C158.273 203.01 158.661 202.958 159.052 202.944C159.44 202.92 159.798 202.93 160.126 202.975L159.996 202.414C159.857 201.811 159.577 201.383 159.157 201.13C158.735 200.866 158.202 200.809 157.558 200.958C157.121 201.059 156.709 201.242 156.321 201.507C155.942 201.759 155.563 202.087 155.186 202.492L154.404 201.524C155.29 200.574 156.299 199.968 157.432 199.706C158.554 199.446 159.493 199.53 160.249 199.958C161.005 200.385 161.507 201.134 161.754 202.204L162.436 205.15C162.52 205.514 162.714 205.666 163.018 205.607L163.357 207.072C163.198 207.142 163.057 207.196 162.935 207.235C162.823 207.272 162.71 207.304 162.596 207.33C162.263 207.407 161.984 207.384 161.759 207.261C161.543 207.136 161.385 206.948 161.283 206.698L161.118 206.194C160.864 206.757 160.498 207.23 160.017 207.615C159.545 207.987 159.002 208.244 158.389 208.386ZM158.565 207.015C158.98 206.919 159.353 206.756 159.683 206.526C160.021 206.284 160.263 206.003 160.408 205.685C160.583 205.448 160.647 205.225 160.599 205.017L160.35 203.941C160.032 203.894 159.7 203.878 159.353 203.893C159.017 203.905 158.693 203.947 158.381 204.019C157.768 204.161 157.295 204.413 156.962 204.774C156.638 205.123 156.526 205.516 156.627 205.952C156.721 206.358 156.951 206.666 157.317 206.877C157.681 207.077 158.097 207.123 158.565 207.015ZM163.733 205.474C164.04 205.381 164.284 205.254 164.466 205.091C164.645 204.918 164.771 204.659 164.844 204.314C164.918 203.968 164.937 203.51 164.904 202.937C164.88 202.362 164.812 201.617 164.698 200.702L164.408 198.24L169.786 196.996L171.672 205.148L169.973 205.541L168.411 198.792L166.26 199.289L166.404 200.833C166.501 201.916 166.545 202.815 166.535 203.529C166.525 204.243 166.437 204.832 166.271 205.298C166.113 205.75 165.866 206.103 165.53 206.356C165.205 206.606 164.78 206.803 164.255 206.947L163.733 205.474ZM171.898 196.507L173.582 196.117L174.206 198.814L175.78 198.45C176.175 198.358 176.563 198.329 176.942 198.361C177.333 198.392 177.69 198.495 178.016 198.671C178.349 198.835 178.634 199.07 178.869 199.377C179.115 199.682 179.289 200.057 179.392 200.504C179.498 200.962 179.508 201.381 179.421 201.762C179.342 202.131 179.194 202.461 178.976 202.752C178.759 203.043 178.482 203.288 178.145 203.486C177.815 203.672 177.458 203.809 177.074 203.898L173.785 204.659L171.898 196.507ZM176.644 202.536C177.039 202.445 177.336 202.261 177.534 201.985C177.733 201.709 177.782 201.353 177.681 200.917C177.578 200.47 177.37 200.162 177.057 199.994C176.742 199.815 176.403 199.767 176.039 199.851L174.527 200.201L175.147 202.882L176.644 202.536ZM181.989 197.588L185.699 196.729L184.949 193.487L186.633 193.098L188.519 201.25L186.835 201.64L186.035 198.179L182.325 199.038L183.125 202.498L181.442 202.888L179.556 194.735L181.239 194.346L181.989 197.588ZM188.75 192.608L190.434 192.218L191.058 194.915L192.538 194.572C192.933 194.481 193.321 194.451 193.701 194.484C194.091 194.514 194.449 194.617 194.774 194.794C195.097 194.96 195.376 195.197 195.612 195.503C195.857 195.808 196.032 196.184 196.135 196.63C196.241 197.088 196.25 197.507 196.163 197.888C196.084 198.257 195.936 198.587 195.719 198.878C195.502 199.169 195.23 199.413 194.903 199.609C194.573 199.795 194.211 199.933 193.816 200.024L190.636 200.76L188.75 192.608ZM195.718 190.995L197.417 190.602L199.303 198.755L197.604 199.148L195.718 190.995ZM193.386 198.662C193.792 198.569 194.089 198.385 194.277 198.111C194.476 197.835 194.525 197.479 194.424 197.043C194.321 196.596 194.112 196.288 193.8 196.12C193.485 195.941 193.145 195.893 192.782 195.978L191.379 196.302L191.999 198.983L193.386 198.662ZM205.129 197.571C204.495 197.718 203.893 197.742 203.323 197.644C202.75 197.536 202.232 197.333 201.769 197.035C201.317 196.734 200.927 196.354 200.602 195.893C200.287 195.429 200.063 194.911 199.931 194.34C199.798 193.768 199.772 193.205 199.852 192.65C199.939 192.083 200.12 191.564 200.395 191.096C200.678 190.614 201.054 190.204 201.523 189.866C201.99 189.517 202.545 189.268 203.189 189.119C203.823 188.972 204.421 188.954 204.983 189.065C205.556 189.173 206.069 189.378 206.521 189.678C206.972 189.968 207.349 190.346 207.654 190.812C207.967 191.265 208.187 191.767 208.314 192.318C208.343 192.443 208.366 192.563 208.382 192.68C208.396 192.786 208.406 192.877 208.412 192.952L201.881 194.464C201.996 194.82 202.155 195.128 202.357 195.388C202.57 195.645 202.811 195.858 203.08 196.025C203.356 196.18 203.648 196.283 203.955 196.332C204.273 196.379 204.587 196.366 204.899 196.294C205.128 196.241 205.345 196.164 205.551 196.061C205.765 195.946 205.954 195.815 206.117 195.667C206.278 195.51 206.413 195.336 206.522 195.147C206.631 194.957 206.706 194.759 206.746 194.553L208.309 194.635C208.17 195.313 207.819 195.925 207.256 196.472C206.7 197.005 205.991 197.372 205.129 197.571ZM206.486 192.15C206.375 191.814 206.213 191.518 206.001 191.26C205.798 191.001 205.565 190.797 205.301 190.65C205.035 190.493 204.743 190.391 204.425 190.344C204.108 190.297 203.788 190.311 203.466 190.385C203.144 190.46 202.851 190.588 202.586 190.769C202.332 190.949 202.12 191.167 201.95 191.426C201.777 191.674 201.657 191.959 201.589 192.281C201.521 192.603 201.512 192.939 201.56 193.29L206.486 192.15ZM213.045 191.273C212.913 190.701 212.887 190.138 212.966 189.583C213.046 189.028 213.223 188.516 213.498 188.048C213.783 187.576 214.16 187.172 214.629 186.833C215.096 186.484 215.652 186.235 216.296 186.086C217.138 185.892 217.903 185.911 218.593 186.146C219.29 186.368 219.86 186.751 220.303 187.294L218.758 188.21C218.481 187.913 218.155 187.709 217.779 187.599C217.401 187.478 217.009 187.465 216.604 187.559C216.261 187.638 215.954 187.78 215.684 187.985C215.424 188.188 215.214 188.439 215.054 188.739C214.891 189.028 214.786 189.354 214.738 189.715C214.69 190.076 214.713 190.46 214.807 190.865C214.898 191.26 215.046 191.614 215.25 191.928C215.462 192.23 215.706 192.48 215.982 192.679C216.268 192.875 216.574 193.013 216.898 193.091C217.231 193.156 217.564 193.15 217.896 193.073C218.104 193.025 218.306 192.951 218.502 192.851C218.695 192.741 218.863 192.614 219.005 192.472C219.158 192.327 219.281 192.173 219.374 192.009C219.478 191.842 219.543 191.674 219.569 191.504L221.368 191.613C221.24 192.289 220.905 192.897 220.362 193.439C219.817 193.97 219.113 194.336 218.251 194.535C217.617 194.682 217.014 194.701 216.441 194.593C215.869 194.484 215.351 194.281 214.888 193.983C214.433 193.672 214.042 193.286 213.717 192.825C213.401 192.362 213.178 191.844 213.045 191.273ZM226.867 192.542C226.233 192.688 225.631 192.713 225.061 192.615C224.488 192.506 223.971 192.303 223.508 192.005C223.055 191.705 222.666 191.324 222.34 190.863C222.025 190.399 221.801 189.882 221.669 189.31C221.536 188.739 221.51 188.175 221.59 187.62C221.677 187.053 221.859 186.535 222.133 186.066C222.416 185.584 222.792 185.174 223.261 184.836C223.728 184.487 224.283 184.238 224.928 184.089C225.562 183.942 226.16 183.925 226.722 184.035C227.294 184.144 227.807 184.348 228.259 184.648C228.71 184.938 229.087 185.316 229.392 185.782C229.705 186.235 229.925 186.737 230.053 187.288C230.082 187.413 230.104 187.534 230.12 187.65C230.134 187.757 230.144 187.847 230.15 187.923L223.619 189.434C223.734 189.79 223.893 190.098 224.095 190.358C224.308 190.615 224.549 190.828 224.818 190.996C225.094 191.151 225.386 191.253 225.693 191.302C226.011 191.349 226.325 191.337 226.637 191.264C226.866 191.212 227.083 191.134 227.289 191.031C227.504 190.916 227.692 190.785 227.855 190.638C228.016 190.48 228.151 190.307 228.26 190.117C228.37 189.927 228.444 189.73 228.484 189.523L230.047 189.605C229.908 190.283 229.557 190.895 228.994 191.442C228.438 191.975 227.729 192.342 226.867 192.542ZM228.224 187.12C228.113 186.784 227.952 186.488 227.739 186.231C227.536 185.971 227.303 185.767 227.039 185.621C226.773 185.463 226.481 185.361 226.164 185.314C225.846 185.267 225.526 185.281 225.204 185.355C224.882 185.43 224.589 185.558 224.324 185.74C224.07 185.919 223.858 186.138 223.688 186.396C223.515 186.644 223.395 186.929 223.327 187.251C223.26 187.574 223.25 187.91 223.298 188.26L228.224 187.12ZM235.658 190.343L233.974 190.733L232.431 184.061L229.781 184.674L229.438 183.193L236.422 181.577L236.764 183.058L234.114 183.672L235.658 190.343ZM240.79 186.594L243.644 179.906L244.953 179.603L246.84 187.756L245.156 188.146L243.861 182.549L241.057 189.094L239.669 189.415L237.783 181.263L239.466 180.873L240.79 186.594Z" fill="black"/>
<rect x="0.339355" y="91.5602" width="133.846" height="51.9996" rx="15" transform="rotate(-43.1625 0.339355 91.5602)" fill="white"/>
<circle cx="6.9069" cy="93.6024" r="3.21655" transform="rotate(-30.1347 6.9069 93.6024)" fill="#FF3359"/>
<path d="M28.0953 88.0286L37.3712 91.0429L34.9927 81.5601L37.1459 79.5407L39.9933 91.8741L44.1634 96.3206L42.2027 98.1594L37.9998 93.6779L25.9421 90.048L28.0953 88.0286ZM52.7559 88.5914C52.0323 89.27 51.2584 89.7545 50.434 90.045C49.6214 90.3246 48.8083 90.44 47.9949 90.3912C47.1814 90.3425 46.3957 90.1362 45.6376 89.7723C44.8686 89.3967 44.1886 88.8938 43.5976 88.2636C43.0066 87.6334 42.5538 86.9283 42.2392 86.1485C41.9137 85.357 41.7527 84.5538 41.7562 83.7389C41.7713 82.9131 41.9445 82.1037 42.2755 81.3106C42.6183 80.5066 43.1456 79.7708 43.8575 79.1031C44.5694 78.4354 45.3317 77.9618 46.1444 77.6823C46.9687 77.3918 47.7876 77.2709 48.601 77.3196C49.4261 77.3574 50.2232 77.5641 50.9922 77.9397C51.7502 78.3036 52.4248 78.8007 53.0158 79.4309C53.6069 80.0611 54.0651 80.7719 54.3906 81.5634C54.7052 82.3433 54.8549 83.1461 54.8397 83.9719C54.8362 84.7868 54.6631 85.5963 54.3204 86.4003C53.9893 87.1933 53.4678 87.9237 52.7559 88.5914ZM45.5922 86.4259C46.0081 86.8694 46.4612 87.2122 46.9515 87.4543C47.4418 87.6964 47.9408 87.8426 48.4486 87.8929C48.9454 87.9314 49.4338 87.8792 49.9138 87.7361C50.3946 87.5704 50.8275 87.307 51.2126 86.9458C51.5978 86.5846 51.8826 86.1749 52.0671 85.7167C52.2523 85.2359 52.3361 84.7406 52.3185 84.2306C52.3009 83.7207 52.187 83.2133 51.9768 82.7085C51.7666 82.2037 51.4536 81.7296 51.0376 81.2861C50.6327 80.8543 50.185 80.5173 49.6948 80.2752C49.1935 80.0214 48.689 79.8694 48.1813 79.8191C47.6735 79.7689 47.1792 79.8266 46.6985 79.9923C46.2185 80.1353 45.7859 80.3875 45.4008 80.7487C45.0273 81.0989 44.748 81.5144 44.5628 81.9952C44.3892 82.4651 44.3112 82.955 44.3288 83.4649C44.3464 83.9749 44.46 84.4935 44.6694 85.021C44.8796 85.5258 45.1872 85.9941 45.5922 86.4259ZM61.9914 79.93C61.0344 80.8275 60.0208 81.1968 58.9505 81.038C57.8693 80.8675 56.7486 80.1637 55.5884 78.9266L50.3348 73.3246L52.2605 71.5187L57.1529 76.7355C58.6962 78.3811 60.0513 78.6566 61.2184 77.5621C61.7669 77.0477 62.1276 76.3914 62.3003 75.5932C62.4731 74.7951 62.3927 73.9492 62.0591 73.0556L56.707 67.3486L58.6326 65.5427L65.0848 72.4225C65.2927 72.6443 65.4755 72.769 65.6331 72.7967C65.8024 72.8134 65.9917 72.7346 66.201 72.5602L67.7443 74.2058C67.5787 74.4269 67.4372 74.6034 67.3198 74.7355C67.2023 74.8676 67.0853 74.9883 66.9686 75.0978C66.6184 75.4261 66.2333 75.6119 65.8131 75.655C65.3819 75.6864 65.0182 75.5559 64.722 75.2634L63.8332 74.3859C64.0486 75.4342 63.9937 76.4399 63.6685 77.403C63.3324 78.3543 62.7733 79.1967 61.9914 79.93ZM67.0963 54.7097L62.9649 58.5843L72.9961 69.2805L71.0179 71.1357L60.9867 60.4395L56.8378 64.3305L55.2124 62.5974L65.4709 52.9766L67.0963 54.7097ZM79.6513 63.3681C78.6943 64.2656 77.6807 64.6349 76.6104 64.476C75.5292 64.3055 74.4085 63.6017 73.2483 62.3646L67.9947 56.7627L69.9203 54.9567L74.8128 60.1735C76.3561 61.8191 77.7112 62.0946 78.8783 61.0001C79.4268 60.4857 79.7874 59.8294 79.9602 59.0313C80.133 58.2331 80.0526 57.3872 79.719 56.4936L74.3669 50.7867L76.2925 48.9807L82.7447 55.8606C82.9526 56.0823 83.1354 56.207 83.293 56.2347C83.4622 56.2515 83.6515 56.1727 83.8609 55.9983L85.4041 57.6438C85.2386 57.8649 85.0971 58.0415 84.9796 58.1735C84.8622 58.3056 84.7451 58.4264 84.6284 58.5358C84.2783 58.8642 83.8931 59.0499 83.4729 59.093C83.0418 59.1245 82.6781 58.9939 82.3818 58.7015L81.4931 57.824C81.7085 58.8723 81.6536 59.878 81.3284 60.841C80.9923 61.7924 80.4332 62.6347 79.6513 63.3681ZM92.4372 51.377C91.737 52.0337 90.9477 52.4668 90.0694 52.6764C89.1918 52.8633 88.3269 52.8299 87.4748 52.5761L89.0344 54.2392L87.3364 55.8317L75.3515 43.0523L77.2771 41.2464L82.3009 46.6032C82.1155 45.6804 82.1325 44.798 82.3519 43.9561C82.583 43.1032 83.0662 42.332 83.8015 41.6425C84.4083 41.0733 85.0886 40.6877 85.8421 40.4854C86.5848 40.2716 87.3391 40.2222 88.1051 40.3373C88.8719 40.4298 89.6223 40.6803 90.3562 41.0887C91.091 41.4745 91.7538 41.9825 92.3449 42.6127C92.9578 43.2663 93.4215 43.983 93.7361 44.7628C94.0507 45.5426 94.2179 46.329 94.2377 47.122C94.2466 47.9034 94.0975 48.6683 93.7905 49.4169C93.4952 50.1545 93.0441 50.8079 92.4372 51.377ZM90.3863 50.2076C90.8064 49.8135 91.115 49.3706 91.3118 48.8789C91.4978 48.3755 91.582 47.8688 91.5644 47.3589C91.5584 46.838 91.4558 46.331 91.2566 45.8378C91.0464 45.333 90.7498 44.8764 90.3667 44.4679C89.9836 44.0594 89.5469 43.7342 89.0566 43.492C88.5671 43.2273 88.0684 43.0698 87.5606 43.0196C87.0536 42.9467 86.5488 42.9814 86.0461 43.1238C85.5552 43.2552 85.1113 43.5069 84.7145 43.8791C84.1193 44.4373 83.7689 45.1279 83.6632 45.9508C83.5693 46.7628 83.6569 47.558 83.9263 48.3363L86.1919 50.7522C86.5137 50.9549 86.8661 51.0851 87.2491 51.1426C87.6212 51.1885 88.0005 51.1837 88.3872 51.1282C88.7738 51.0727 89.1451 50.9658 89.5011 50.8074C89.8462 50.6373 90.1412 50.4374 90.3863 50.2076ZM102.642 41.8067C101.93 42.4743 101.167 42.9592 100.354 43.2614C99.5297 43.5519 98.705 43.6783 97.8799 43.6405C97.0665 43.5917 96.2749 43.3909 95.5052 43.0379C94.7471 42.674 94.0671 42.1711 93.4651 41.5292C92.8631 40.8873 92.4049 40.1765 92.0903 39.3967C91.7764 38.5942 91.6213 37.7856 91.6248 36.9707C91.629 36.1332 91.808 35.3182 92.1617 34.5259C92.5044 33.7219 93.0376 32.9806 93.7611 32.302C94.4731 31.6343 95.2353 31.1607 96.048 30.8812C96.8723 30.5907 97.6912 30.4698 98.5046 30.5185C99.3071 30.5556 100.082 30.7616 100.828 31.1364C101.575 31.4886 102.239 31.974 102.819 32.5926C102.95 32.7326 103.07 32.8723 103.179 33.0116C103.277 33.1393 103.358 33.2494 103.423 33.3421L96.0879 40.2211C96.506 40.5967 96.9442 40.8768 97.4023 41.0613C97.8722 41.2348 98.3446 41.3292 98.8195 41.3444C99.2952 41.3371 99.7508 41.2498 100.186 41.0827C100.633 40.9046 101.032 40.6514 101.382 40.323C101.639 40.0822 101.863 39.8177 102.053 39.5295C102.244 39.2187 102.39 38.9064 102.49 38.5927C102.58 38.2673 102.625 37.9405 102.624 37.6122C102.623 37.2839 102.571 36.9709 102.467 36.6733L104.556 35.6027C104.887 36.5868 104.892 37.6454 104.573 38.7784C104.254 39.8888 103.611 40.8982 102.642 41.8067ZM100.32 33.7519C99.9234 33.3996 99.4903 33.1367 99.0205 32.9631C98.5623 32.7786 98.1067 32.6904 97.6537 32.6985C97.1897 32.695 96.7341 32.7822 96.2869 32.9603C95.8397 33.1384 95.4353 33.3971 95.0735 33.7364C94.7117 34.0757 94.4276 34.4628 94.2212 34.8976C94.0265 35.3215 93.916 35.7651 93.8899 36.2283C93.8527 36.6799 93.9115 37.1403 94.0663 37.6093C94.221 38.0784 94.4615 38.5219 94.7877 38.9399L100.32 33.7519Z" fill="black"/>
<rect x="351.941" y="200.26" width="205.234" height="40.3618" rx="15" transform="rotate(6.6938 351.941 200.26)" fill="white"/>
<circle cx="356" cy="205" r="2" fill="#FF3359"/>
<path d="M372.636 222.278L373.812 222.416L377.949 218.053L379.983 218.291L375.307 223.268L379.024 229.617L376.99 229.378L373.798 224.042L372.448 223.883L371.873 228.778L370.078 228.567L371.402 217.284L373.198 217.495L372.636 222.278ZM383.347 230.285C382.69 230.208 382.11 230.022 381.608 229.727C381.116 229.433 380.708 229.068 380.383 228.633C380.058 228.197 379.826 227.708 379.686 227.165C379.546 226.612 379.51 226.049 379.578 225.477C379.645 224.905 379.809 224.371 380.072 223.876C380.335 223.37 380.675 222.942 381.092 222.594C381.519 222.247 382.006 221.987 382.553 221.815C383.11 221.644 383.711 221.597 384.358 221.672C385.004 221.748 385.573 221.933 386.065 222.227C386.567 222.522 386.981 222.888 387.305 223.323C387.641 223.76 387.878 224.255 388.017 224.808C388.157 225.351 388.194 225.908 388.127 226.48C388.06 227.053 387.894 227.592 387.631 228.098C387.369 228.593 387.024 229.015 386.597 229.362C386.18 229.71 385.693 229.97 385.136 230.141C384.589 230.313 383.993 230.361 383.347 230.285ZM381.371 225.704C381.324 226.106 381.344 226.485 381.432 226.838C381.519 227.192 381.659 227.51 381.851 227.79C382.045 228.06 382.282 228.286 382.561 228.469C382.852 228.643 383.173 228.75 383.522 228.791C383.872 228.833 384.203 228.802 384.516 228.699C384.84 228.586 385.129 228.416 385.381 228.188C385.633 227.96 385.843 227.684 386.01 227.36C386.177 227.036 386.284 226.672 386.331 226.27C386.377 225.878 386.357 225.505 386.269 225.151C386.183 224.786 386.044 224.464 385.851 224.184C385.658 223.903 385.417 223.676 385.126 223.502C384.846 223.319 384.532 223.207 384.182 223.166C383.843 223.126 383.512 223.163 383.187 223.275C382.873 223.388 382.59 223.559 382.337 223.787C382.085 224.015 381.87 224.296 381.691 224.63C381.524 224.954 381.417 225.312 381.371 225.704ZM391.526 226.009L395.308 226.453L395.696 223.148L397.412 223.349L396.437 231.66L394.721 231.459L395.135 227.931L391.353 227.487L390.938 231.015L389.222 230.814L390.198 222.503L391.914 222.704L391.526 226.009ZM402.234 232.341L400.518 232.139L401.316 225.338L398.615 225.021L398.792 223.511L405.911 224.347L405.734 225.857L403.033 225.54L402.234 232.341ZM409.636 233.371C408.99 233.295 408.415 233.115 407.911 232.83C407.409 232.535 406.99 232.169 406.655 231.732C406.33 231.296 406.092 230.807 405.941 230.263C405.801 229.72 405.765 229.157 405.833 228.575C405.901 227.992 406.067 227.453 406.329 226.957C406.603 226.453 406.948 226.026 407.365 225.677C407.794 225.32 408.286 225.061 408.842 224.9C409.399 224.729 410.006 224.683 410.663 224.76C411.309 224.835 411.878 225.02 412.37 225.314C412.872 225.61 413.285 225.975 413.61 226.41C413.936 226.835 414.164 227.319 414.294 227.86C414.436 228.392 414.473 228.939 414.408 229.5C414.393 229.628 414.373 229.749 414.349 229.864C414.326 229.969 414.305 230.058 414.285 230.13L407.627 229.349C407.615 229.724 407.661 230.067 407.764 230.38C407.877 230.694 408.032 230.975 408.229 231.224C408.437 231.463 408.677 231.658 408.949 231.808C409.232 231.959 409.533 232.054 409.851 232.091C410.084 232.118 410.314 232.119 410.543 232.092C410.784 232.055 411.005 231.996 411.209 231.912C411.413 231.818 411.599 231.7 411.766 231.559C411.933 231.417 412.07 231.256 412.177 231.075L413.62 231.68C413.261 232.271 412.724 232.729 412.009 233.053C411.306 233.368 410.515 233.474 409.636 233.371ZM412.743 228.725C412.752 228.372 412.7 228.038 412.586 227.724C412.483 227.411 412.332 227.141 412.134 226.914C411.936 226.676 411.696 226.481 411.413 226.33C411.13 226.178 410.824 226.083 410.496 226.045C410.167 226.006 409.848 226.028 409.538 226.11C409.238 226.193 408.964 226.327 408.717 226.513C408.471 226.688 408.262 226.916 408.089 227.196C407.917 227.477 407.794 227.79 407.721 228.136L412.743 228.725ZM421.368 226.161L423.275 226.385L419.543 230.039L422.538 234.724L420.583 234.494L418.269 230.743L417.49 230.652L417.087 234.084L415.371 233.883L416.346 225.572L418.063 225.773L417.656 229.237L418.308 229.314L421.368 226.161ZM423.217 230.583C423.286 230 423.451 229.461 423.713 228.965C423.976 228.47 424.315 228.048 424.732 227.7C425.159 227.352 425.651 227.099 426.207 226.938C426.764 226.767 427.371 226.72 428.027 226.798C428.886 226.898 429.599 227.175 430.169 227.629C430.751 228.073 431.158 228.626 431.392 229.287L429.628 229.627C429.468 229.254 429.23 228.952 428.913 228.722C428.598 228.481 428.233 228.336 427.82 228.288C427.471 228.247 427.134 228.277 426.811 228.379C426.498 228.481 426.216 228.647 425.963 228.875C425.712 229.093 425.503 229.364 425.336 229.688C425.169 230.012 425.062 230.38 425.013 230.793C424.966 231.196 424.985 231.58 425.071 231.944C425.169 232.299 425.315 232.617 425.507 232.897C425.71 233.179 425.952 233.411 426.231 233.595C426.522 233.768 426.837 233.875 427.176 233.915C427.388 233.94 427.603 233.938 427.821 233.91C428.04 233.871 428.241 233.809 428.423 233.723C428.615 233.638 428.783 233.534 428.927 233.411C429.081 233.29 429.199 233.153 429.281 233.002L430.937 233.712C430.589 234.305 430.067 234.764 429.374 235.091C428.682 235.407 427.896 235.514 427.017 235.41C426.37 235.335 425.796 235.149 425.294 234.854C424.791 234.559 424.373 234.193 424.037 233.756C423.714 233.31 423.476 232.815 423.325 232.271C423.185 231.728 423.149 231.165 423.217 230.583ZM435.816 236.282L434.1 236.081L434.898 229.279L432.197 228.962L432.374 227.453L439.493 228.288L439.316 229.798L436.615 229.481L435.816 236.282ZM442.209 231.958L445.991 232.402L446.379 229.096L448.096 229.298L447.12 237.609L445.404 237.407L445.818 233.88L442.036 233.436L441.622 236.963L439.906 236.762L440.881 228.451L442.597 228.653L442.209 231.958ZM451.437 238.277C451.035 238.229 450.666 238.122 450.331 237.953C450.009 237.776 449.734 237.556 449.507 237.293C449.29 237.031 449.127 236.733 449.016 236.397C448.915 236.064 448.887 235.711 448.93 235.34C448.976 234.948 449.103 234.603 449.31 234.305C449.516 234.008 449.787 233.76 450.122 233.563C450.467 233.367 450.859 233.231 451.297 233.153C451.747 233.077 452.231 233.07 452.75 233.131C453.142 233.177 453.524 233.259 453.897 233.378C454.271 233.486 454.605 233.617 454.898 233.769L454.965 233.197C455.037 232.583 454.919 232.085 454.609 231.705C454.3 231.315 453.818 231.081 453.161 231.004C452.716 230.952 452.266 230.985 451.812 231.103C451.37 231.213 450.903 231.394 450.411 231.648L450.001 230.472C451.156 229.877 452.31 229.648 453.465 229.783C454.609 229.917 455.465 230.313 456.032 230.97C456.599 231.628 456.819 232.502 456.691 233.593L456.338 236.596C456.295 236.967 456.426 237.176 456.732 237.223L456.557 238.716C456.384 238.728 456.233 238.732 456.104 238.728C455.987 238.725 455.87 238.716 455.753 238.703C455.414 238.663 455.159 238.547 454.988 238.355C454.828 238.164 454.742 237.934 454.731 237.664L454.745 237.134C454.317 237.578 453.812 237.9 453.23 238.1C452.66 238.291 452.062 238.35 451.437 238.277ZM452.065 237.045C452.489 237.095 452.895 237.068 453.283 236.963C453.683 236.849 454.005 236.666 454.249 236.416C454.494 236.251 454.629 236.063 454.654 235.851L454.783 234.754C454.5 234.603 454.192 234.476 453.861 234.372C453.54 234.27 453.22 234.201 452.903 234.163C452.278 234.09 451.748 234.167 451.313 234.396C450.89 234.614 450.652 234.946 450.6 235.391C450.551 235.804 450.664 236.172 450.938 236.494C451.212 236.806 451.588 236.989 452.065 237.045ZM459.99 235.881C459.534 235.645 459.181 235.314 458.93 234.887C458.68 234.46 458.592 233.929 458.666 233.293C458.715 232.88 458.832 232.518 459.019 232.207C459.207 231.885 459.442 231.623 459.724 231.42C460.007 231.206 460.33 231.056 460.695 230.97C461.071 230.874 461.466 230.851 461.879 230.899L465.312 231.302L464.334 239.629L462.602 239.426L462.944 236.518L461.593 236.359L459.472 239.058L457.549 238.833L459.99 235.881ZM463.11 235.103L463.41 232.545L461.868 232.364C461.551 232.327 461.241 232.403 460.939 232.593C460.638 232.784 460.462 233.091 460.412 233.514C460.365 233.917 460.45 234.244 460.668 234.495C460.897 234.736 461.181 234.877 461.52 234.917L463.11 235.103ZM475.116 241.056C474.449 240.977 473.879 240.749 473.408 240.372C472.937 239.994 472.583 239.534 472.346 238.991L471.766 243.933L470.018 243.728L471.39 232.032L472.932 232.213L472.757 233.706C473.133 233.246 473.587 232.896 474.12 232.658C474.663 232.421 475.253 232.34 475.888 232.415C476.461 232.482 476.971 232.66 477.421 232.949C477.87 233.238 478.246 233.599 478.55 234.032C478.854 234.465 479.07 234.952 479.2 235.494C479.34 236.036 479.377 236.594 479.31 237.166C479.239 237.77 479.083 238.326 478.84 238.835C478.599 239.333 478.291 239.758 477.917 240.112C477.544 240.454 477.116 240.716 476.633 240.895C476.162 241.066 475.656 241.119 475.116 241.056ZM474.719 239.495C475.09 239.538 475.433 239.498 475.748 239.374C476.074 239.251 476.359 239.07 476.602 238.83C476.855 238.591 477.06 238.309 477.216 237.983C477.373 237.658 477.472 237.315 477.514 236.955C477.559 236.574 477.532 236.206 477.435 235.85C477.347 235.496 477.202 235.179 476.999 234.897C476.806 234.617 476.559 234.384 476.259 234.198C475.959 234.012 475.623 233.898 475.252 233.854C475.03 233.828 474.792 233.843 474.538 233.899C474.285 233.956 474.043 234.045 473.814 234.169C473.585 234.292 473.379 234.445 473.196 234.628C473.015 234.8 472.879 234.999 472.788 235.224L472.532 237.402C472.608 237.668 472.718 237.923 472.862 238.165C473.005 238.407 473.168 238.62 473.351 238.802C473.544 238.986 473.757 239.14 473.989 239.264C474.222 239.388 474.465 239.465 474.719 239.495ZM484.14 242.115C483.494 242.039 482.919 241.859 482.415 241.574C481.913 241.279 481.494 240.913 481.159 240.476C480.834 240.041 480.596 239.551 480.445 239.007C480.305 238.464 480.269 237.901 480.337 237.319C480.406 236.736 480.571 236.197 480.833 235.701C481.107 235.197 481.453 234.77 481.869 234.422C482.298 234.064 482.79 233.805 483.346 233.644C483.903 233.473 484.51 233.427 485.167 233.504C485.813 233.58 486.382 233.764 486.874 234.058C487.376 234.354 487.79 234.719 488.115 235.155C488.441 235.579 488.668 236.063 488.798 236.604C488.94 237.136 488.978 237.683 488.912 238.244C488.897 238.372 488.877 238.493 488.853 238.608C488.83 238.713 488.809 238.802 488.79 238.875L482.131 238.093C482.119 238.468 482.165 238.811 482.268 239.124C482.381 239.438 482.536 239.719 482.733 239.968C482.941 240.207 483.181 240.402 483.454 240.552C483.737 240.703 484.037 240.798 484.355 240.835C484.588 240.862 484.819 240.863 485.047 240.836C485.288 240.8 485.51 240.74 485.713 240.656C485.917 240.562 486.103 240.444 486.27 240.303C486.437 240.161 486.574 240 486.681 239.819L488.124 240.424C487.765 241.015 487.228 241.473 486.513 241.797C485.811 242.112 485.019 242.218 484.14 242.115ZM487.247 237.469C487.256 237.116 487.204 236.782 487.09 236.468C486.988 236.155 486.837 235.885 486.638 235.658C486.44 235.42 486.2 235.225 485.917 235.074C485.634 234.922 485.328 234.828 485 234.789C484.672 234.75 484.352 234.772 484.042 234.854C483.742 234.937 483.469 235.071 483.221 235.257C482.975 235.432 482.766 235.66 482.593 235.94C482.421 236.221 482.298 236.534 482.225 236.88L487.247 237.469ZM495.872 234.905L497.779 235.129L494.048 238.783L497.042 243.468L495.087 243.238L492.773 239.487L491.994 239.396L491.591 242.828L489.875 242.627L490.851 234.316L492.567 234.517L492.16 237.981L492.812 238.058L495.872 234.905ZM497.302 242.016C497.622 242.032 497.895 241.995 498.121 241.903C498.347 241.801 498.554 241.599 498.739 241.299C498.925 240.998 499.098 240.573 499.26 240.023C499.431 239.474 499.618 238.749 499.821 237.849L500.378 235.434L505.86 236.077L504.885 244.388L503.153 244.185L503.96 237.304L501.768 237.047L501.382 238.548C501.108 239.601 500.846 240.461 500.596 241.13C500.345 241.799 500.063 242.324 499.75 242.706C499.449 243.079 499.097 243.328 498.696 243.452C498.305 243.578 497.839 243.62 497.296 243.578L497.302 242.016ZM509.197 245.055C508.794 245.008 508.426 244.9 508.091 244.732C507.768 244.555 507.493 244.335 507.267 244.072C507.05 243.81 506.887 243.512 506.776 243.176C506.675 242.842 506.647 242.49 506.69 242.119C506.736 241.727 506.863 241.382 507.069 241.084C507.276 240.786 507.547 240.539 507.881 240.342C508.227 240.146 508.619 240.01 509.057 239.932C509.507 239.856 509.991 239.848 510.51 239.909C510.902 239.955 511.284 240.038 511.657 240.157C512.031 240.265 512.364 240.396 512.658 240.548L512.725 239.976C512.797 239.362 512.678 238.864 512.369 238.484C512.06 238.094 511.577 237.86 510.921 237.783C510.476 237.731 510.026 237.764 509.572 237.882C509.129 237.991 508.662 238.173 508.171 238.427L507.761 237.251C508.916 236.656 510.07 236.426 511.225 236.562C512.369 236.696 513.225 237.092 513.792 237.749C514.359 238.407 514.579 239.281 514.451 240.372L514.098 243.375C514.055 243.746 514.186 243.955 514.492 244.001L514.317 245.495C514.143 245.507 513.993 245.511 513.864 245.507C513.747 245.503 513.629 245.495 513.513 245.481C513.174 245.442 512.919 245.326 512.748 245.134C512.588 244.943 512.502 244.713 512.491 244.443L512.505 243.913C512.077 244.357 511.572 244.679 510.99 244.879C510.42 245.07 509.822 245.129 509.197 245.055ZM509.825 243.824C510.249 243.874 510.655 243.846 511.043 243.742C511.443 243.627 511.765 243.445 512.009 243.195C512.254 243.03 512.389 242.842 512.414 242.63L512.542 241.533C512.259 241.382 511.952 241.255 511.621 241.151C511.3 241.049 510.98 240.98 510.662 240.942C510.037 240.869 509.507 240.946 509.073 241.174C508.65 241.393 508.412 241.725 508.36 242.17C508.311 242.583 508.424 242.951 508.697 243.273C508.972 243.585 509.348 243.768 509.825 243.824ZM520.846 242.766L524.071 238.215L525.835 238.422L524.859 246.733L523.175 246.535L523.814 241.084L521.055 244.965L520.15 244.859L518.348 240.443L517.708 245.893L516.024 245.696L516.999 237.385L518.779 237.593L520.846 242.766ZM529.185 247.401C528.782 247.354 528.414 247.246 528.079 247.078C527.756 246.901 527.481 246.68 527.254 246.418C527.038 246.156 526.874 245.857 526.763 245.522C526.663 245.188 526.635 244.836 526.678 244.465C526.724 244.073 526.85 243.728 527.057 243.43C527.264 243.132 527.535 242.885 527.869 242.688C528.214 242.492 528.606 242.355 529.045 242.278C529.494 242.202 529.979 242.194 530.498 242.255C530.89 242.301 531.272 242.384 531.645 242.503C532.019 242.611 532.352 242.741 532.646 242.894L532.713 242.322C532.785 241.707 532.666 241.21 532.356 240.83C532.048 240.44 531.565 240.206 530.908 240.129C530.463 240.076 530.014 240.11 529.56 240.228C529.117 240.337 528.65 240.519 528.159 240.772L527.749 239.597C528.903 239.002 530.058 238.772 531.213 238.908C532.357 239.042 533.213 239.438 533.78 240.095C534.347 240.752 534.567 241.627 534.439 242.718L534.086 245.721C534.043 246.092 534.174 246.301 534.48 246.347L534.305 247.841C534.131 247.853 533.98 247.857 533.852 247.852C533.734 247.849 533.617 247.841 533.501 247.827C533.162 247.787 532.907 247.672 532.736 247.48C532.576 247.289 532.49 247.059 532.479 246.789L532.493 246.259C532.065 246.703 531.56 247.025 530.978 247.225C530.407 247.416 529.81 247.475 529.185 247.401ZM529.813 246.17C530.236 246.22 530.642 246.192 531.031 246.087C531.431 245.973 531.753 245.791 531.997 245.54C532.242 245.376 532.377 245.188 532.402 244.976L532.53 243.879C532.247 243.728 531.94 243.601 531.608 243.497C531.288 243.395 530.968 243.325 530.65 243.288C530.025 243.215 529.495 243.292 529.06 243.52C528.637 243.739 528.4 244.071 528.347 244.516C528.299 244.929 528.412 245.297 528.685 245.619C528.96 245.93 529.336 246.114 529.813 246.17Z" fill="black"/>
<rect x="140.288" y="316.561" width="93.0328" height="51.306" rx="15" transform="rotate(-24.4837 140.288 316.561)" fill="white"/>
<circle cx="145.957" cy="319.97" r="3.06773" fill="#FF3359"/>
<path d="M178.722 320.012C178.449 319.895 178.09 319.805 177.645 319.745C177.191 319.665 176.682 319.633 176.118 319.649C175.572 319.656 174.987 319.724 174.365 319.854C173.761 319.975 173.168 320.168 172.585 320.433C171.293 321.022 170.445 321.694 170.042 322.449C169.657 323.195 169.655 323.987 170.036 324.825C170.251 325.298 170.521 325.648 170.844 325.874C171.176 326.074 171.597 326.202 172.105 326.256C172.605 326.292 173.197 326.264 173.88 326.173C174.556 326.063 175.339 325.926 176.231 325.761C177.322 325.55 178.325 325.412 179.24 325.347C180.174 325.274 181.009 325.322 181.745 325.492C182.482 325.662 183.137 325.99 183.71 326.476C184.293 326.936 184.783 327.603 185.181 328.476C185.629 329.459 185.823 330.393 185.764 331.277C185.723 332.152 185.479 332.967 185.031 333.72C184.593 334.447 183.996 335.115 183.24 335.723C182.475 336.312 181.602 336.831 180.619 337.279C179.145 337.95 177.616 338.382 176.034 338.575C174.462 338.742 172.926 338.65 171.426 338.3L171.625 335.045C171.969 335.174 172.426 335.285 172.995 335.377C173.583 335.461 174.226 335.498 174.925 335.487C175.633 335.451 176.374 335.366 177.149 335.233C177.915 335.082 178.672 334.836 179.418 334.496C180.619 333.949 181.452 333.317 181.917 332.6C182.381 331.883 182.427 331.115 182.054 330.296C181.83 329.804 181.516 329.453 181.112 329.241C180.727 329.021 180.252 328.897 179.689 328.867C179.118 328.82 178.46 328.845 177.713 328.943C176.967 329.041 176.125 329.172 175.188 329.335C174.108 329.519 173.141 329.641 172.289 329.699C171.446 329.731 170.697 329.655 170.042 329.47C169.386 329.285 168.811 328.987 168.315 328.575C167.83 328.137 167.413 327.535 167.065 326.771C166.634 325.824 166.435 324.904 166.468 324.01C166.492 323.098 166.701 322.256 167.096 321.482C167.501 320.683 168.074 319.961 168.813 319.316C169.553 318.672 170.423 318.122 171.424 317.666C172.734 317.069 174.04 316.727 175.341 316.64C176.642 316.553 177.852 316.628 178.971 316.866L178.722 320.012ZM202.763 323.7L203.994 326.403L190.697 332.458L181.87 313.074L194.92 307.131L196.151 309.834L186.159 314.384L188.67 319.899L197.325 315.958L198.481 318.497L189.826 322.438L192.524 328.363L202.763 323.7ZM214.865 321.618C213.481 322.248 212.092 322.551 210.696 322.527C209.311 322.477 208.002 322.183 206.768 321.646C205.526 321.09 204.408 320.325 203.415 319.349C202.439 318.365 201.669 317.254 201.106 316.016C200.517 314.724 200.19 313.378 200.125 311.98C200.059 310.581 200.229 309.24 200.633 307.957C201.056 306.666 201.712 305.499 202.6 304.458C203.498 303.389 204.62 302.549 205.967 301.935C207.351 301.305 208.739 301.025 210.133 301.093C211.537 301.135 212.85 301.438 214.074 302.002C215.316 302.557 216.424 303.327 217.4 304.311C218.385 305.268 219.156 306.357 219.711 307.577C220.3 308.869 220.627 310.214 220.692 311.613C220.776 313.003 220.606 314.344 220.184 315.635C219.752 316.909 219.088 318.079 218.19 319.148C217.302 320.189 216.193 321.013 214.865 321.618ZM204.218 314.599C204.633 315.509 205.18 316.325 205.861 317.048C206.542 317.771 207.295 318.34 208.122 318.755C208.966 319.161 209.862 319.391 210.809 319.443C211.747 319.477 212.69 319.279 213.636 318.848C214.619 318.4 215.392 317.806 215.956 317.066C216.53 316.299 216.928 315.459 217.149 314.545C217.37 313.631 217.426 312.694 217.318 311.732C217.21 310.77 216.957 309.853 216.559 308.979C216.136 308.051 215.589 307.234 214.916 306.53C214.235 305.807 213.477 305.251 212.641 304.863C211.814 304.448 210.932 304.223 209.994 304.189C209.065 304.129 208.136 304.31 207.208 304.732C206.225 305.18 205.447 305.787 204.873 306.554C204.291 307.303 203.885 308.125 203.656 309.02C203.426 309.916 203.361 310.858 203.459 311.846C203.567 312.807 203.82 313.725 204.218 314.599Z" fill="black"/>
<rect x="320.59" y="52.9999" width="106.094" height="41.52" rx="15" transform="rotate(15.2726 320.59 52.9999)" fill="white"/>
<circle cx="324.715" cy="57.8106" r="2.32429" fill="#FF3359"/>
<path d="M350.586 77.0158L346.033 75.7725L342.814 87.5609L340.634 86.9656L343.853 75.1772L339.28 73.9286L339.802 72.0185L351.108 75.1057L350.586 77.0158ZM349.453 89.5811C348.964 89.4476 348.529 89.2457 348.146 88.9755C347.781 88.6959 347.482 88.3725 347.25 88.0052C347.032 87.6414 346.885 87.242 346.811 86.807C346.749 86.3755 346.779 85.9346 346.902 85.4844C347.032 85.0085 347.253 84.6057 347.564 84.276C347.875 83.9464 348.256 83.691 348.706 83.5098C349.169 83.3322 349.679 83.2365 350.236 83.2226C350.805 83.2123 351.405 83.2931 352.035 83.4652C352.511 83.5952 352.968 83.7684 353.407 83.9849C353.849 84.1885 354.237 84.412 354.571 84.6553L354.761 83.9607C354.965 83.2147 354.911 82.578 354.598 82.0505C354.29 81.5101 353.737 81.131 352.939 80.9133C352.399 80.7658 351.837 80.7229 351.254 80.7847C350.687 80.8372 350.076 80.9744 349.421 81.1964L349.133 79.6667C350.671 79.1468 352.141 79.0782 353.543 79.4611C354.932 79.8404 355.916 80.4891 356.495 81.4073C357.073 82.3254 357.182 83.4469 356.82 84.7718L355.824 88.4183C355.701 88.8685 355.825 89.1509 356.194 89.2656L355.699 91.0792C355.483 91.0616 355.296 91.0382 355.138 91.0089C354.993 90.9831 354.85 90.9509 354.708 90.9123C354.296 90.7999 354.003 90.6092 353.828 90.3402C353.665 90.0747 353.602 89.7741 353.638 89.4385L353.754 88.786C353.143 89.2547 352.459 89.5586 351.702 89.6975C350.962 89.8271 350.212 89.7883 349.453 89.5811ZM350.459 88.1763C350.973 88.3168 351.48 88.3585 351.979 88.3013C352.495 88.2348 352.927 88.0695 353.276 87.8053C353.609 87.6475 353.811 87.44 353.881 87.1828L354.245 85.8515C353.923 85.6117 353.567 85.397 353.177 85.2074C352.799 85.0214 352.417 84.8757 352.031 84.7703C351.272 84.5631 350.603 84.56 350.023 84.7609C349.459 84.9525 349.104 85.3184 348.956 85.8587C348.819 86.3603 348.89 86.8357 349.168 87.2848C349.45 87.7211 349.88 88.0183 350.459 88.1763ZM363.449 93.4028C362.639 93.1815 361.978 92.7937 361.466 92.2392C360.954 91.6847 360.602 91.0497 360.41 90.3339L358.772 96.3342L356.65 95.7547L360.527 81.5546L362.399 82.0656L361.903 83.8792C362.454 83.3801 363.081 83.0329 363.784 82.8379C364.5 82.6463 365.244 82.6559 366.015 82.8666C366.71 83.0563 367.308 83.3716 367.809 83.8126C368.311 84.2536 368.709 84.7701 369.004 85.3619C369.298 85.9537 369.475 86.5963 369.534 87.2898C369.607 87.9868 369.548 88.6826 369.358 89.3771C369.158 90.1103 368.861 90.7686 368.467 91.352C368.076 91.9226 367.616 92.3914 367.088 92.7584C366.562 93.1126 365.985 93.3556 365.354 93.4876C364.74 93.6102 364.105 93.5819 363.449 93.4028ZM363.25 91.3995C363.7 91.5225 364.132 91.5366 364.544 91.442C364.97 91.3509 365.356 91.1797 365.701 90.9284C366.059 90.6806 366.364 90.3702 366.618 89.9973C366.872 89.6243 367.059 89.2192 367.178 88.7818C367.305 88.3188 367.34 87.8586 367.286 87.4014C367.244 86.9476 367.123 86.5278 366.925 86.1418C366.739 85.7594 366.478 85.4254 366.141 85.14C365.804 84.8545 365.411 84.6503 364.961 84.5274C364.69 84.4537 364.393 84.4279 364.069 84.45C363.746 84.4721 363.43 84.5381 363.124 84.6479C362.818 84.7577 362.535 84.9085 362.275 85.1002C362.019 85.279 361.813 85.4994 361.659 85.7613L360.937 88.4045C360.982 88.7484 361.07 89.0834 361.202 89.4097C361.334 89.736 361.496 90.029 361.687 90.2887C361.892 90.5519 362.126 90.7817 362.391 90.9783C362.655 91.1748 362.941 91.3152 363.25 91.3995ZM378.82 88.3533L374.305 87.1205L372.008 95.5325L369.925 94.9636L372.68 84.873L379.278 86.6747L378.82 88.3533ZM382.074 98.4884C381.29 98.2742 380.613 97.9442 380.043 97.4985C379.478 97.0399 379.028 96.5095 378.695 95.9071C378.375 95.3083 378.172 94.6586 378.087 93.9581C378.015 93.2611 378.075 92.5589 378.268 91.8515C378.461 91.144 378.766 90.5085 379.183 89.945C379.616 89.3721 380.122 88.9092 380.702 88.5562C381.299 88.1939 381.955 87.9655 382.672 87.871C383.393 87.7636 384.152 87.8188 384.949 88.0365C385.734 88.2508 386.402 88.5854 386.955 89.0405C387.521 89.4991 387.964 90.0278 388.285 90.6266C388.608 91.2126 388.8 91.8523 388.859 92.5458C388.935 93.2299 388.88 93.9129 388.694 94.5946C388.652 94.7489 388.605 94.8951 388.553 95.0331C388.505 95.1582 388.463 95.264 388.425 95.3505L380.341 93.1431C380.257 93.6038 380.249 94.0371 380.318 94.4429C380.4 94.8522 380.539 95.2288 380.735 95.5727C380.948 95.9072 381.209 96.1926 381.517 96.4289C381.839 96.6688 382.192 96.8414 382.578 96.9467C382.861 97.024 383.147 97.0674 383.434 97.0768C383.738 97.0769 384.024 97.0442 384.29 96.9788C384.56 96.9006 384.812 96.7895 385.045 96.6458C385.277 96.502 385.477 96.3284 385.643 96.125L387.314 97.1411C386.76 97.8052 386.011 98.271 385.067 98.5385C384.139 98.7966 383.142 98.78 382.074 98.4884ZM386.78 93.3258C386.858 92.8908 386.856 92.4686 386.774 92.0593C386.705 91.6535 386.569 91.2915 386.365 90.9734C386.166 90.6424 385.905 90.3569 385.583 90.1171C385.262 89.8773 384.902 89.7029 384.503 89.5941C384.104 89.4852 383.706 89.4523 383.307 89.4955C382.921 89.5421 382.558 89.6572 382.217 89.8407C381.88 90.0113 381.579 90.2539 381.314 90.5684C381.048 90.8829 380.838 91.2471 380.684 91.661L386.78 93.3258ZM393.052 101.279L390.969 100.71L393.223 92.4521L389.944 91.5565L390.444 89.7236L399.088 92.0837L398.587 93.9166L395.307 93.021L393.052 101.279Z" fill="black"/>
</svg>
